<svg class="main-svg" xmlns="http://www.w3.org/2000/svg" xmlns:xlink="http://www.w3.org/1999/xlink" width="700" height="500" style="" viewBox="0 0 700 500"><rect x="0" y="0" width="700" height="500" style="fill: rgb(255, 255, 255); fill-opacity: 1;"/><defs id="defs-47ebce"><g class="clips"><clipPath id="clip47ebcexyplot" class="plotclip"><rect width="418" height="360"/></clipPath><clipPath class="axesclip" id="clip47ebcex"><rect x="80" y="0" width="418" height="500"/></clipPath><clipPath class="axesclip" id="clip47ebcey"><rect x="0" y="60" width="700" height="360"/></clipPath><clipPath class="axesclip" id="clip47ebcexy"><rect x="80" y="60" width="418" height="360"/></clipPath></g><g class="gradients"/><g class="patterns"/></defs><g class="bglayer"><rect class="bg" x="80" y="60" width="418" height="360" style="fill: rgb(229, 236, 246); fill-opacity: 1; stroke-width: 0;"/></g><g class="layer-below"><g class="imagelayer"/><g class="shapelayer"/></g><g class="cartesianlayer"><g class="subplot xy"><g class="layer-subplot"><g class="shapelayer"/><g class="imagelayer"/></g><g class="minor-gridlayer"><g class="x"/><g class="y"/></g><g class="gridlayer"><g class="x"><path class="xgrid crisp" transform="translate(163.6,0)" d="M0,60v360" style="stroke: rgb(255, 255, 255); stroke-opacity: 1; stroke-width: 1px;"/><path class="xgrid crisp" transform="translate(247.2,0)" d="M0,60v360" style="stroke: rgb(255, 255, 255); stroke-opacity: 1; stroke-width: 1px;"/><path class="xgrid crisp" transform="translate(330.8,0)" d="M0,60v360" style="stroke: rgb(255, 255, 255); stroke-opacity: 1; stroke-width: 1px;"/><path class="xgrid crisp" transform="translate(414.4,0)" d="M0,60v360" style="stroke: rgb(255, 255, 255); stroke-opacity: 1; stroke-width: 1px;"/></g><g class="y"><path class="ygrid crisp" transform="translate(0,337.2)" d="M80,0h418" style="stroke: rgb(255, 255, 255); stroke-opacity: 1; stroke-width: 1px;"/><path class="ygrid crisp" transform="translate(0,272.4)" d="M80,0h418" style="stroke: rgb(255, 255, 255); stroke-opacity: 1; stroke-width: 1px;"/><path class="ygrid crisp" transform="translate(0,207.6)" d="M80,0h418" style="stroke: rgb(255, 255, 255); stroke-opacity: 1; stroke-width: 1px;"/><path class="ygrid crisp" transform="translate(0,142.8)" d="M80,0h418" style="stroke: rgb(255, 255, 255); stroke-opacity: 1; stroke-width: 1px;"/><path class="ygrid crisp" transform="translate(0,78)" d="M80,0h418" style="stroke: rgb(255, 255, 255); stroke-opacity: 1; stroke-width: 1px;"/></g></g><g class="zerolinelayer"><path class="xzl zl crisp" transform="translate(80,0)" d="M0,60v360" style="stroke: rgb(255, 255, 255); stroke-opacity: 1; stroke-width: 2px;"/><path class="yzl zl crisp" transform="translate(0,402)" d="M80,0h418" style="stroke: rgb(255, 255, 255); stroke-opacity: 1; stroke-width: 2px;"/></g><g class="layer-between"><g class="shapelayer"/><g class="imagelayer"/></g><path class="xlines-below"/><path class="ylines-below"/><g class="overlines-below"/><g class="xaxislayer-below"/><g class="yaxislayer-below"/><g class="overaxes-below"/><g class="overplot"><g class="xy" transform="translate(80,60)" clip-path="url(#clip47ebcexyplot)"><g class="scatterlayer mlayer"><g class="trace scatter trace73abd9" style="stroke-miterlimit: 2; opacity: 1;"><g class="fills"/><g class="errorbars"/><g class="lines"><path class="js-line" d="M0,250.87L4.22,225.56L8.44,301.5L12.67,250.87L16.89,342L21.11,230.62L25.33,220.5L29.56,180L33.78,215.44L38,205.31L42.22,235.69L46.44,210.37L50.67,149.63L54.89,134.44L59.11,124.31L63.33,134.44L67.56,139.5L71.78,159.75L76,124.31L80.22,129.38L84.44,99L88.67,73.68L92.89,104.06L97.11,83.81L101.33,88.88L109.78,58.5L114,68.63L118.22,63.56L122.44,119.25L126.67,53.43L130.89,63.56L135.11,58.5L139.33,73.68L143.56,63.56L147.78,58.5L152,73.68L156.22,63.56L160.44,73.68L164.67,78.75L168.89,53.43L173.11,38.25L177.33,58.5L181.56,63.56L185.78,28.13L190,43.31L198.44,33.18L202.67,58.5L206.89,48.38L211.11,33.18L215.33,53.43L219.56,33.18L223.78,38.25L228,23.06L232.22,33.18L236.44,28.13L240.67,23.06L244.89,23.06L249.11,28.13L253.33,28.13L257.56,33.18L261.78,33.18L266,18L270.22,23.06L274.44,18L278.67,18L282.89,18L287.11,28.13L291.33,23.06L295.56,28.13L299.78,28.13L304,18L316.67,18L320.89,23.06L325.11,33.18L329.33,18L418,18" style="vector-effect: none; fill: none; stroke: rgb(99, 110, 250); stroke-opacity: 1; stroke-width: 2px; opacity: 1;"/></g><g class="points"/><g class="text"/></g><g class="trace scatter tracef73294" style="stroke-miterlimit: 2; opacity: 1;"><g class="fills"/><g class="errorbars"/><g class="lines"><path class="js-line" d="M0,342L4.22,337.15L8.44,333.87L29.56,319.24L33.78,316.07L59.11,298.43L63.33,295.28L80.22,283.51L84.44,280.59L97.11,270.89L101.33,268.06L109.78,262L114,258.67L173.11,218.01L177.33,214.62L202.67,196.82L206.89,193.36L228,177.53L232.22,174.05L244.89,164.02L249.11,160.65L274.44,142.12L278.67,138.65L287.11,130.7L291.33,127.29L320.89,105.08L325.11,101.32L337.78,91.84L342,88.53L375.78,62.75L380,49.05L405.33,28.63L409.56,24.82L418,18" style="vector-effect: none; fill: none; stroke: rgb(239, 85, 59); stroke-opacity: 1; stroke-width: 2px; opacity: 1;"/></g><g class="points"/><g class="text"/></g></g></g></g><path class="xlines-above crisp" d="M0,0" style="fill: none;"/><path class="ylines-above crisp" d="M0,0" style="fill: none;"/><g class="overlines-above"/><g class="xaxislayer-above"><g class="xtick"><text text-anchor="middle" x="0" y="436" transform="translate(80,0)" style="font-family: 'Times New Roman'; font-size: 15px; fill: rgb(42, 63, 95); fill-opacity: 1; white-space: pre; opacity: 1;">0</text></g><g class="xtick"><text text-anchor="middle" x="0" y="436" style="font-family: 'Times New Roman'; font-size: 15px; fill: rgb(42, 63, 95); fill-opacity: 1; white-space: pre; opacity: 1;" transform="translate(163.6,0)">0.2</text></g><g class="xtick"><text text-anchor="middle" x="0" y="436" style="font-family: 'Times New Roman'; font-size: 15px; fill: rgb(42, 63, 95); fill-opacity: 1; white-space: pre; opacity: 1;" transform="translate(247.2,0)">0.4</text></g><g class="xtick"><text text-anchor="middle" x="0" y="436" style="font-family: 'Times New Roman'; font-size: 15px; fill: rgb(42, 63, 95); fill-opacity: 1; white-space: pre; opacity: 1;" transform="translate(330.8,0)">0.6</text></g><g class="xtick"><text text-anchor="middle" x="0" y="436" style="font-family: 'Times New Roman'; font-size: 15px; fill: rgb(42, 63, 95); fill-opacity: 1; white-space: pre; opacity: 1;" transform="translate(414.4,0)">0.8</text></g><g class="xtick"><text text-anchor="middle" x="0" y="436" style="font-family: 'Times New Roman'; font-size: 15px; fill: rgb(42, 63, 95); fill-opacity: 1; white-space: pre; opacity: 1;" transform="translate(498,0)">1</text></g></g><g class="yaxislayer-above"><g class="ytick"><text text-anchor="end" x="79" y="5.25" transform="translate(0,402)" style="font-family: 'Times New Roman'; font-size: 15px; fill: rgb(42, 63, 95); fill-opacity: 1; white-space: pre; opacity: 1;">0</text></g><g class="ytick"><text text-anchor="end" x="79" y="5.25" style="font-family: 'Times New Roman'; font-size: 15px; fill: rgb(42, 63, 95); fill-opacity: 1; white-space: pre; opacity: 1;" transform="translate(0,337.2)">0.2</text></g><g class="ytick"><text text-anchor="end" x="79" y="5.25" style="font-family: 'Times New Roman'; font-size: 15px; fill: rgb(42, 63, 95); fill-opacity: 1; white-space: pre; opacity: 1;" transform="translate(0,272.4)">0.4</text></g><g class="ytick"><text text-anchor="end" x="79" y="5.25" style="font-family: 'Times New Roman'; font-size: 15px; fill: rgb(42, 63, 95); fill-opacity: 1; white-space: pre; opacity: 1;" transform="translate(0,207.6)">0.6</text></g><g class="ytick"><text text-anchor="end" x="79" y="5.25" style="font-family: 'Times New Roman'; font-size: 15px; fill: rgb(42, 63, 95); fill-opacity: 1; white-space: pre; opacity: 1;" transform="translate(0,142.8)">0.8</text></g><g class="ytick"><text text-anchor="end" x="79" y="5.25" style="font-family: 'Times New Roman'; font-size: 15px; fill: rgb(42, 63, 95); fill-opacity: 1; white-space: pre; opacity: 1;" transform="translate(0,78)">1</text></g></g><g class="overaxes-above"/></g></g><g class="polarlayer"/><g class="smithlayer"/><g class="ternarylayer"/><g class="geolayer"/><g class="funnelarealayer"/><g class="pielayer"/><g class="iciclelayer"/><g class="treemaplayer"/><g class="sunburstlayer"/><g class="glimages"/><defs id="topdefs-47ebce"><g class="clips"/><clipPath id="legend47ebce"><rect width="182" height="79" x="0" y="0"/></clipPath></defs><g class="layer-above"><g class="imagelayer"/><g class="shapelayer"/></g><g class="infolayer"><g class="legend" pointer-events="all" transform="translate(506.36,60)"><rect class="bg" shape-rendering="crispEdges" width="182" height="79" x="0" y="0" style="stroke: rgb(68, 68, 68); stroke-opacity: 1; fill: rgb(255, 255, 255); fill-opacity: 1; stroke-width: 0px;"/><g class="scrollbox" transform="" clip-path="url(#legend47ebce)"><text class="legendtitletext" text-anchor="start" x="2" y="23.400000000000002" style="font-family: 'Times New Roman'; font-size: 18px; fill: rgb(42, 63, 95); fill-opacity: 1; white-space: pre;">Metrics</text><g class="groups" transform=""><g class="traces" transform="translate(0,39.650000000000006)" style="opacity: 1;"><text class="legendtext" text-anchor="start" x="40" y="5.85" style="font-family: 'Times New Roman'; font-size: 15px; fill: rgb(42, 63, 95); fill-opacity: 1; white-space: pre;">metrics/accuracy_top1</text><g class="layers" style="opacity: 1;"><g class="legendfill"/><g class="legendlines"><path class="js-line" d="M5,0h30" style="fill: none; stroke: rgb(99, 110, 250); stroke-opacity: 1; stroke-width: 2px;"/></g><g class="legendsymbols"><g class="legendpoints"/></g></g><rect class="legendtoggle" x="0" y="-11.25" width="176.78125" height="22.5" style="fill: rgb(0, 0, 0); fill-opacity: 0;"/></g></g><g class="groups" transform=""><g class="traces" transform="translate(0,62.150000000000006)" style="opacity: 1;"><text class="legendtext" text-anchor="start" x="40" y="5.85" style="font-family: 'Times New Roman'; font-size: 15px; fill: rgb(42, 63, 95); fill-opacity: 1; white-space: pre;">time</text><g class="layers" style="opacity: 1;"><g class="legendfill"/><g class="legendlines"><path class="js-line" d="M5,0h30" style="fill: none; stroke: rgb(239, 85, 59); stroke-opacity: 1; stroke-width: 2px;"/></g><g class="legendsymbols"><g class="legendpoints"/></g></g><rect class="legendtoggle" x="0" y="-11.25" width="176.78125" height="22.5" style="fill: rgb(0, 0, 0); fill-opacity: 0;"/></g></g></g><rect class="scrollbar" rx="20" ry="3" width="0" height="0" x="0" y="0" style="fill: rgb(128, 139, 164); fill-opacity: 1;"/></g><g class="g-gtitle"/><g class="g-xtitle"><text class="xtitle" x="289" y="466.1" text-anchor="middle" style="opacity: 1; font-family: 'Times New Roman'; font-size: 18px; fill: rgb(42, 63, 95); fill-opacity: 1; white-space: pre;">Epoch</text></g><g class="g-ytitle"><text class="ytitle" transform="rotate(-90,39.45,240)" x="39.45" y="240" text-anchor="middle" style="opacity: 1; font-family: 'Times New Roman'; font-size: 18px; fill: rgb(42, 63, 95); fill-opacity: 1; white-space: pre;">Values</text></g></g></svg>