<svg class="main-svg" xmlns="http://www.w3.org/2000/svg" xmlns:xlink="http://www.w3.org/1999/xlink" width="700" height="500" style="" viewBox="0 0 700 500"><rect x="0" y="0" width="700" height="500" style="fill: rgb(255, 255, 255); fill-opacity: 1;"/><defs id="defs-34004f"><g class="clips"><clipPath id="clip34004fxyplot" class="plotclip"><rect width="417" height="320"/></clipPath><clipPath class="axesclip" id="clip34004fx"><rect x="80" y="0" width="417" height="500"/></clipPath><clipPath class="axesclip" id="clip34004fy"><rect x="0" y="100" width="700" height="320"/></clipPath><clipPath class="axesclip" id="clip34004fxy"><rect x="80" y="100" width="417" height="320"/></clipPath></g><g class="gradients"/><g class="patterns"/></defs><g class="bglayer"><rect class="bg" x="80" y="100" width="417" height="320" style="fill: rgb(229, 236, 246); fill-opacity: 1; stroke-width: 0;"/></g><g class="layer-below"><g class="imagelayer"/><g class="shapelayer"/></g><g class="cartesianlayer"><g class="subplot xy"><g class="layer-subplot"><g class="shapelayer"/><g class="imagelayer"/></g><g class="minor-gridlayer"><g class="x"/><g class="y"/></g><g class="gridlayer"><g class="x"><path class="xgrid crisp" transform="translate(159.29000000000002,0)" d="M0,100v320" style="stroke: rgb(255, 255, 255); stroke-opacity: 1; stroke-width: 1px;"/><path class="xgrid crisp" transform="translate(242.75,0)" d="M0,100v320" style="stroke: rgb(255, 255, 255); stroke-opacity: 1; stroke-width: 1px;"/><path class="xgrid crisp" transform="translate(326.21000000000004,0)" d="M0,100v320" style="stroke: rgb(255, 255, 255); stroke-opacity: 1; stroke-width: 1px;"/><path class="xgrid crisp" transform="translate(409.67,0)" d="M0,100v320" style="stroke: rgb(255, 255, 255); stroke-opacity: 1; stroke-width: 1px;"/><path class="xgrid crisp" transform="translate(493.13,0)" d="M0,100v320" style="stroke: rgb(255, 255, 255); stroke-opacity: 1; stroke-width: 1px;"/></g><g class="y"><path class="ygrid crisp" transform="translate(0,363.64)" d="M80,0h417" style="stroke: rgb(255, 255, 255); stroke-opacity: 1; stroke-width: 1px;"/><path class="ygrid crisp" transform="translate(0,323.11)" d="M80,0h417" style="stroke: rgb(255, 255, 255); stroke-opacity: 1; stroke-width: 1px;"/><path class="ygrid crisp" transform="translate(0,282.58000000000004)" d="M80,0h417" style="stroke: rgb(255, 255, 255); stroke-opacity: 1; stroke-width: 1px;"/><path class="ygrid crisp" transform="translate(0,242.04)" d="M80,0h417" style="stroke: rgb(255, 255, 255); stroke-opacity: 1; stroke-width: 1px;"/><path class="ygrid crisp" transform="translate(0,201.51)" d="M80,0h417" style="stroke: rgb(255, 255, 255); stroke-opacity: 1; stroke-width: 1px;"/><path class="ygrid crisp" transform="translate(0,160.98)" d="M80,0h417" style="stroke: rgb(255, 255, 255); stroke-opacity: 1; stroke-width: 1px;"/><path class="ygrid crisp" transform="translate(0,120.44)" d="M80,0h417" style="stroke: rgb(255, 255, 255); stroke-opacity: 1; stroke-width: 1px;"/></g></g><g class="zerolinelayer"><path class="yzl zl crisp" transform="translate(0,404.17)" d="M80,0h417" style="stroke: rgb(255, 255, 255); stroke-opacity: 1; stroke-width: 2px;"/></g><g class="layer-between"><g class="shapelayer"/><g class="imagelayer"/></g><path class="xlines-below"/><path class="ylines-below"/><g class="overlines-below"/><g class="xaxislayer-below"/><g class="yaxislayer-below"/><g class="overaxes-below"/><g class="overplot"><g class="xy" transform="translate(80,100)" clip-path="url(#clip34004fxyplot)"><g class="scatterlayer mlayer"><g class="trace scatter traced90320" style="stroke-miterlimit: 2; opacity: 1;"><g class="fills"/><g class="errorbars"/><g class="lines"><path class="js-line" d="M0,16L4.17,126.3L8.35,96.68L12.52,93.94L16.69,97.67L20.87,102.33L25.04,114.42L29.21,129.56L33.38,135.38L37.56,144.35L41.73,148.41L45.9,146.68L50.08,155.32L58.42,162.41L62.6,168.8L66.77,168.41L70.94,178.83L75.12,177.32L79.29,182.61L83.46,188.1L87.63,202.54L91.81,197.16L95.98,199.2L100.15,210.74L104.33,204.24L108.5,205.57L112.67,208.33L116.85,208.75L121.02,215.18L125.19,213.94L129.37,227.33L133.54,218.54L137.71,219.24L141.88,222.61L146.06,228.52L150.23,225.25L154.4,233.22L158.58,238.75L162.75,235.65L166.92,231.6L171.1,240.75L175.27,242.84L179.44,234.33L183.62,237.58L187.79,242.93L191.96,241.16L196.13,245.38L200.31,242.85L204.48,252.64L208.65,247.41L212.83,250.22L217,251.58L221.17,256.26L225.35,261.93L229.52,259.77L233.69,261.65L237.87,267.64L246.21,263.36L250.38,268.28L254.56,268.47L258.73,271.12L262.9,266.68L267.08,269.33L271.25,273.66L275.42,267.38L279.6,267.95L283.77,274.27L287.94,273.35L292.12,273.43L296.29,276.66L300.46,275.05L304.63,272.88L308.81,277.7L317.15,278.02L321.33,279.74L325.5,277.67L329.67,281.68L333.85,280.58L338.02,281.69L342.19,283.52L346.37,279.56L350.54,283.61L354.71,285.76L358.88,285.31L363.06,286.97L367.23,287.59L371.4,286.67L375.58,286.04L379.75,286.31L383.92,289.97L388.1,290.72L392.27,289.72L396.44,289.6L404.79,292.27L408.96,289.02L413.13,292.45" style="vector-effect: none; fill: none; stroke: rgb(99, 110, 250); stroke-opacity: 1; stroke-width: 2px; opacity: 1;"/></g><g class="points"/><g class="text"/></g><g class="trace scatter traceb7b688" style="stroke-miterlimit: 2; opacity: 1;"><g class="fills"/><g class="errorbars"/><g class="lines"><path class="js-line" d="M0,168.39L4.17,183.71L8.35,112.76L12.52,174.33L16.69,113.83L20.87,163.09L25.04,168.21L29.21,217.36L33.38,191.87L37.56,205.71L41.73,186.22L45.9,187.92L50.08,229.63L54.25,241.6L58.42,232.62L62.6,245.18L66.77,203.66L70.94,236.1L75.12,244.77L79.29,247.98L83.46,257.71L87.63,265.39L91.81,257.61L95.98,260.16L100.15,269.69L104.33,268.29L108.5,275.12L112.67,276.7L116.85,270.94L121.02,245.39L125.19,281.75L129.37,275.6L133.54,279.43L137.71,274.06L141.88,277.76L146.06,276.88L150.23,277.9L154.4,275.33L158.58,278.26L162.75,271.51L166.92,286.31L171.1,288.8L175.27,277.87L179.44,278.5L183.62,290.56L187.79,288.01L191.96,288.09L196.13,292.54L200.31,281.37L204.48,288.63L208.65,293.5L212.83,282.56L217,294.6L221.17,293.55L225.35,296.09L229.52,293.57L233.69,293.35L237.87,295.56L242.04,296.75L246.21,296.1L250.38,298.72L258.73,297.56L262.9,301.01L267.08,298.36L271.25,300.54L279.6,301.36L283.77,299.63L300.46,301.83L304.63,302.62L308.81,301.13L312.98,302.65L317.15,301.94L321.33,299.52L325.5,302.47L329.67,303.32L338.02,303.84L342.19,303.65L354.71,303.8L358.88,302.76L363.06,303.78L367.23,303.81L413.13,304" style="vector-effect: none; fill: none; stroke: rgb(239, 85, 59); stroke-opacity: 1; stroke-width: 2px; opacity: 1;"/></g><g class="points"/><g class="text"/></g><g class="trace scatter tracefc48cb" style="stroke-miterlimit: 2; opacity: 1;"><g class="fills"/><g class="errorbars"/><g class="lines"><path class="js-line" d="M0,153.02L4.17,147.42L8.35,164.21L12.52,153.02L16.69,173.17L20.87,148.54L25.04,146.3L29.21,137.34L33.38,145.18L37.56,142.94L41.73,149.66L45.9,144.06L50.08,130.62L54.25,127.26L58.42,125.02L62.6,127.26L66.77,128.38L70.94,132.86L75.12,125.02L79.29,126.14L83.46,119.43L87.63,113.83L91.81,120.54L95.98,116.07L100.15,117.19L108.5,110.47L112.67,112.71L116.85,111.59L121.02,123.9L125.19,109.35L129.37,111.59L133.54,110.47L137.71,113.83L141.88,111.59L146.06,110.47L150.23,113.83L154.4,111.59L158.58,113.83L162.75,114.95L166.92,109.35L171.1,105.99L175.27,110.47L179.44,111.59L183.62,103.75L187.79,107.11L196.13,104.87L200.31,110.47L204.48,108.23L208.65,104.87L212.83,109.35L217,104.87L221.17,105.99L225.35,102.63L229.52,104.87L233.69,103.75L237.87,102.63L242.04,102.63L246.21,103.75L250.38,103.75L254.56,104.87L258.73,104.87L262.9,101.51L267.08,102.63L271.25,101.51L275.42,101.51L279.6,101.51L283.77,103.75L287.94,102.63L292.12,103.75L296.29,103.75L300.46,101.51L312.98,101.51L317.15,102.63L321.33,104.87L325.5,101.51L413.13,101.51" style="vector-effect: none; fill: none; stroke: rgb(0, 204, 150); stroke-opacity: 1; stroke-width: 2px; opacity: 1;"/></g><g class="points"/><g class="text"/></g></g></g></g><path class="xlines-above crisp" d="M0,0" style="fill: none;"/><path class="ylines-above crisp" d="M0,0" style="fill: none;"/><g class="overlines-above"/><g class="xaxislayer-above"><g class="xtick"><text text-anchor="middle" x="0" y="433" transform="translate(159.29000000000002,0)" style="font-family: 'Open Sans', verdana, arial, sans-serif; font-size: 12px; fill: rgb(42, 63, 95); fill-opacity: 1; white-space: pre; opacity: 1;">20</text></g><g class="xtick"><text text-anchor="middle" x="0" y="433" style="font-family: 'Open Sans', verdana, arial, sans-serif; font-size: 12px; fill: rgb(42, 63, 95); fill-opacity: 1; white-space: pre; opacity: 1;" transform="translate(242.75,0)">40</text></g><g class="xtick"><text text-anchor="middle" x="0" y="433" style="font-family: 'Open Sans', verdana, arial, sans-serif; font-size: 12px; fill: rgb(42, 63, 95); fill-opacity: 1; white-space: pre; opacity: 1;" transform="translate(326.21000000000004,0)">60</text></g><g class="xtick"><text text-anchor="middle" x="0" y="433" style="font-family: 'Open Sans', verdana, arial, sans-serif; font-size: 12px; fill: rgb(42, 63, 95); fill-opacity: 1; white-space: pre; opacity: 1;" transform="translate(409.67,0)">80</text></g><g class="xtick"><text text-anchor="middle" x="0" y="433" style="font-family: 'Open Sans', verdana, arial, sans-serif; font-size: 12px; fill: rgb(42, 63, 95); fill-opacity: 1; white-space: pre; opacity: 1;" transform="translate(493.13,0)">100</text></g></g><g class="yaxislayer-above"><g class="ytick"><text text-anchor="end" x="79" y="4.199999999999999" transform="translate(0,404.17)" style="font-family: 'Open Sans', verdana, arial, sans-serif; font-size: 12px; fill: rgb(42, 63, 95); fill-opacity: 1; white-space: pre; opacity: 1;">0</text></g><g class="ytick"><text text-anchor="end" x="79" y="4.199999999999999" style="font-family: 'Open Sans', verdana, arial, sans-serif; font-size: 12px; fill: rgb(42, 63, 95); fill-opacity: 1; white-space: pre; opacity: 1;" transform="translate(0,363.64)">0.2</text></g><g class="ytick"><text text-anchor="end" x="79" y="4.199999999999999" style="font-family: 'Open Sans', verdana, arial, sans-serif; font-size: 12px; fill: rgb(42, 63, 95); fill-opacity: 1; white-space: pre; opacity: 1;" transform="translate(0,323.11)">0.4</text></g><g class="ytick"><text text-anchor="end" x="79" y="4.199999999999999" style="font-family: 'Open Sans', verdana, arial, sans-serif; font-size: 12px; fill: rgb(42, 63, 95); fill-opacity: 1; white-space: pre; opacity: 1;" transform="translate(0,282.58000000000004)">0.6</text></g><g class="ytick"><text text-anchor="end" x="79" y="4.199999999999999" style="font-family: 'Open Sans', verdana, arial, sans-serif; font-size: 12px; fill: rgb(42, 63, 95); fill-opacity: 1; white-space: pre; opacity: 1;" transform="translate(0,242.04)">0.8</text></g><g class="ytick"><text text-anchor="end" x="79" y="4.199999999999999" style="font-family: 'Open Sans', verdana, arial, sans-serif; font-size: 12px; fill: rgb(42, 63, 95); fill-opacity: 1; white-space: pre; opacity: 1;" transform="translate(0,201.51)">1</text></g><g class="ytick"><text text-anchor="end" x="79" y="4.199999999999999" style="font-family: 'Open Sans', verdana, arial, sans-serif; font-size: 12px; fill: rgb(42, 63, 95); fill-opacity: 1; white-space: pre; opacity: 1;" transform="translate(0,160.98)">1.2</text></g><g class="ytick"><text text-anchor="end" x="79" y="4.199999999999999" style="font-family: 'Open Sans', verdana, arial, sans-serif; font-size: 12px; fill: rgb(42, 63, 95); fill-opacity: 1; white-space: pre; opacity: 1;" transform="translate(0,120.44)">1.4</text></g></g><g class="overaxes-above"/></g></g><g class="polarlayer"/><g class="smithlayer"/><g class="ternarylayer"/><g class="geolayer"/><g class="funnelarealayer"/><g class="pielayer"/><g class="iciclelayer"/><g class="treemaplayer"/><g class="sunburstlayer"/><g class="glimages"/><defs id="topdefs-34004f"><g class="clips"/><clipPath id="legend34004f"><rect width="183" height="86" x="0" y="0"/></clipPath></defs><g class="layer-above"><g class="imagelayer"/><g class="shapelayer"><g class="shape-group" data-index="0" clip-path="url(#clip34004fy)"><path data-index="0" fill-rule="evenodd" d="M80,201.51L497,201.51" style="opacity: 1; stroke: rgb(42, 63, 95); stroke-opacity: 1; fill: rgb(0, 0, 0); fill-opacity: 0; stroke-dasharray: 3px, 3px; stroke-width: 2px;"/></g><g class="shape-group" data-index="1" clip-path="url(#clip34004fx)"><path data-index="1" fill-rule="evenodd" d="M405.5,420L405.5,100" style="opacity: 1; stroke: rgb(42, 63, 95); stroke-opacity: 1; fill: rgb(0, 0, 0); fill-opacity: 0; stroke-dasharray: 3px, 3px; stroke-width: 2px;"/></g></g></g><g class="infolayer"><g class="legend" pointer-events="all" transform="translate(505.34000000000003,100)"><rect class="bg" shape-rendering="crispEdges" width="183" height="86" x="0" y="0" style="stroke: rgb(68, 68, 68); stroke-opacity: 1; fill: rgb(255, 255, 255); fill-opacity: 1; stroke-width: 0px;"/><g class="scrollbox" transform="" clip-path="url(#legend34004f)"><text class="legendtitletext" text-anchor="start" x="2" y="18.2" style="font-family: 'Open Sans', verdana, arial, sans-serif; font-size: 14px; fill: rgb(42, 63, 95); fill-opacity: 1; white-space: pre;">variable</text><g class="groups" transform=""><g class="traces" transform="translate(0,32.7)" style="opacity: 1;"><text class="legendtext" text-anchor="start" x="40" y="4.680000000000001" style="font-family: 'Open Sans', verdana, arial, sans-serif; font-size: 12px; fill: rgb(42, 63, 95); fill-opacity: 1; white-space: pre;">train/loss</text><g class="layers" style="opacity: 1;"><g class="legendfill"/><g class="legendlines"><path class="js-line" d="M5,0h30" style="fill: none; stroke: rgb(99, 110, 250); stroke-opacity: 1; stroke-width: 2px;"/></g><g class="legendsymbols"><g class="legendpoints"/></g></g><rect class="legendtoggle" x="0" y="-9.5" width="177.4375" height="19" style="fill: rgb(0, 0, 0); fill-opacity: 0;"/></g></g><g class="groups" transform=""><g class="traces" transform="translate(0,51.7)" style="opacity: 1;"><text class="legendtext" text-anchor="start" x="40" y="4.680000000000001" style="font-family: 'Open Sans', verdana, arial, sans-serif; font-size: 12px; fill: rgb(42, 63, 95); fill-opacity: 1; white-space: pre;">val/loss</text><g class="layers" style="opacity: 1;"><g class="legendfill"/><g class="legendlines"><path class="js-line" d="M5,0h30" style="fill: none; stroke: rgb(239, 85, 59); stroke-opacity: 1; stroke-width: 2px;"/></g><g class="legendsymbols"><g class="legendpoints"/></g></g><rect class="legendtoggle" x="0" y="-9.5" width="177.4375" height="19" style="fill: rgb(0, 0, 0); fill-opacity: 0;"/></g></g><g class="groups" transform=""><g class="traces" transform="translate(0,70.7)" style="opacity: 1;"><text class="legendtext" text-anchor="start" x="40" y="4.680000000000001" style="font-family: 'Open Sans', verdana, arial, sans-serif; font-size: 12px; fill: rgb(42, 63, 95); fill-opacity: 1; white-space: pre;">metrics/accuracy_top1</text><g class="layers" style="opacity: 1;"><g class="legendfill"/><g class="legendlines"><path class="js-line" d="M5,0h30" style="fill: none; stroke: rgb(0, 204, 150); stroke-opacity: 1; stroke-width: 2px;"/></g><g class="legendsymbols"><g class="legendpoints"/></g></g><rect class="legendtoggle" x="0" y="-9.5" width="177.4375" height="19" style="fill: rgb(0, 0, 0); fill-opacity: 0;"/></g></g></g><rect class="scrollbar" rx="20" ry="3" width="0" height="0" x="0" y="0" style="fill: rgb(128, 139, 164); fill-opacity: 1;"/></g><g class="g-gtitle"><text class="gtitle" x="35" y="50" text-anchor="start" dy="0em" style="opacity: 1; font-family: 'Open Sans', verdana, arial, sans-serif; font-size: 17px; fill: rgb(42, 63, 95); fill-opacity: 1; white-space: pre;">Loss vs Val_loss</text></g><g class="g-xtitle"><text class="xtitle" x="288.5" y="460.3" text-anchor="middle" style="opacity: 1; font-family: 'Open Sans', verdana, arial, sans-serif; font-size: 14px; fill: rgb(42, 63, 95); fill-opacity: 1; white-space: pre;">epoch</text></g><g class="g-ytitle"><text class="ytitle" transform="rotate(-90,39.975,260)" x="39.975" y="260" text-anchor="middle" style="opacity: 1; font-family: 'Open Sans', verdana, arial, sans-serif; font-size: 14px; fill: rgb(42, 63, 95); fill-opacity: 1; white-space: pre;">value</text></g><g class="annotation" data-index="0" style="opacity: 1;"><g class="annotation-text-g" transform="rotate(0,455.5,241.51)"><g class="cursor-pointer" transform="translate(414,232)"><rect class="bg" x="0.5" y="0.5" width="82" height="18" style="stroke-width: 1px; stroke: rgb(0, 0, 0); stroke-opacity: 0; fill: rgb(0, 0, 0); fill-opacity: 0;"/><text class="annotation-text" text-anchor="middle" x="41.34375" y="14" style="font-family: 'Open Sans', verdana, arial, sans-serif; font-size: 12px; fill: rgb(42, 63, 95); fill-opacity: 1; white-space: pre;">accuracy = 1</text></g></g><g class="annotation-arrow-g" style="opacity: 1;"><path d="M444.25,232.51L405.5,201.51" style="stroke-width: 1px; stroke: rgb(42, 63, 95); stroke-opacity: 1; stroke-dasharray: 0px, 0.6px, 49.0242px, 49.6242px;"/><path d="M-2.4,-3V3L0.6,0Z" transform="translate(443.781494140625,232.1351776123047)rotate(38.657077673168885)" style="fill: rgb(42, 63, 95); stroke-width: 0;"/></g></g><g class="annotation" data-index="1" style="opacity: 1;"><g class="annotation-text-g" transform="rotate(0,455.5,364.17)"><g class="cursor-pointer" transform="translate(417,355)"><rect class="bg" x="0.5" y="0.5" width="76" height="18" style="stroke-width: 1px; stroke: rgb(0, 0, 0); stroke-opacity: 0; fill: rgb(0, 0, 0); fill-opacity: 0;"/><text class="annotation-text" text-anchor="middle" x="38.34375" y="14" style="font-family: 'Open Sans', verdana, arial, sans-serif; font-size: 12px; fill: rgb(42, 63, 95); fill-opacity: 1; white-space: pre;">val/lose = 0</text></g></g><g class="annotation-arrow-g" style="opacity: 1;"><path d="M444.25,373.17L405.5,404.17" style="stroke-width: 1px; stroke: rgb(42, 63, 95); stroke-opacity: 1; stroke-dasharray: 0px, 0.6px, 49.0242px, 49.6242px;"/><path d="M-2.4,-3V3L0.6,0Z" transform="translate(443.781494140625,373.5448303222656)rotate(-38.657077673168885)" style="fill: rgb(42, 63, 95); stroke-width: 0;"/></g></g><g class="annotation" data-index="2" style="opacity: 1;"><g class="annotation-text-g" transform="rotate(0,325.5,302.84000000000003)"><g class="cursor-pointer" transform="translate(289,293)"><rect class="bg" x="0.5" y="0.5" width="73" height="18" style="stroke-width: 1px; stroke: rgb(0, 0, 0); stroke-opacity: 0; fill: rgb(0, 0, 0); fill-opacity: 0;"/><text class="annotation-text" text-anchor="middle" x="36.640625" y="14" style="font-family: 'Open Sans', verdana, arial, sans-serif; font-size: 12px; fill: rgb(42, 63, 95); fill-opacity: 1; white-space: pre;">epoch = 79</text></g></g><g class="annotation-arrow-g" style="opacity: 1;"><path d="M362,302.84000000000003L405.5,302.84000000000003" style="stroke-width: 1px; stroke: rgb(42, 63, 95); stroke-opacity: 1; stroke-dasharray: 0px, 0.6px, 42.9px, 43.5px;"/><path d="M-2.4,-3V3L0.6,0Z" transform="translate(362.6000061035156,302.8399963378906)rotate(180)" style="fill: rgb(42, 63, 95); stroke-width: 0;"/></g></g></g></svg>