<svg class="main-svg" xmlns="http://www.w3.org/2000/svg" xmlns:xlink="http://www.w3.org/1999/xlink" width="700" height="500" style="" viewBox="0 0 700 500"><rect x="0" y="0" width="700" height="500" style="fill: rgb(255, 255, 255); fill-opacity: 1;"/><defs id="defs-d09784"><g class="clips"><clipPath id="clipd09784xyplot" class="plotclip"><rect width="540" height="325"/></clipPath><clipPath class="axesclip" id="clipd09784x"><rect x="80" y="0" width="540" height="500"/></clipPath><clipPath class="axesclip" id="clipd09784y"><rect x="0" y="60" width="700" height="325"/></clipPath><clipPath class="axesclip" id="clipd09784xy"><rect x="80" y="60" width="540" height="325"/></clipPath></g><g class="gradients"/><g class="patterns"/></defs><g class="bglayer"><rect class="bg" x="80" y="60" width="540" height="325" style="fill: rgb(229, 236, 246); fill-opacity: 1; stroke-width: 0;"/></g><g class="layer-below"><g class="imagelayer"/><g class="shapelayer"/></g><g class="cartesianlayer"><g class="subplot xy"><g class="layer-subplot"><g class="shapelayer"/><g class="imagelayer"/></g><g class="minor-gridlayer"><g class="x"/><g class="y"/></g><g class="gridlayer"><g class="x"/><g class="y"><path class="ygrid crisp" transform="translate(0,329.27)" d="M80,0h540" style="stroke: rgb(255, 255, 255); stroke-opacity: 1; stroke-width: 1px;"/><path class="ygrid crisp" transform="translate(0,273.53999999999996)" d="M80,0h540" style="stroke: rgb(255, 255, 255); stroke-opacity: 1; stroke-width: 1px;"/><path class="ygrid crisp" transform="translate(0,217.81)" d="M80,0h540" style="stroke: rgb(255, 255, 255); stroke-opacity: 1; stroke-width: 1px;"/><path class="ygrid crisp" transform="translate(0,162.07999999999998)" d="M80,0h540" style="stroke: rgb(255, 255, 255); stroke-opacity: 1; stroke-width: 1px;"/><path class="ygrid crisp" transform="translate(0,106.34)" d="M80,0h540" style="stroke: rgb(255, 255, 255); stroke-opacity: 1; stroke-width: 1px;"/></g></g><g class="zerolinelayer"><path class="yzl zl crisp" transform="translate(0,385)" d="M80,0h540" style="stroke: rgb(255, 255, 255); stroke-opacity: 1; stroke-width: 2px;"/></g><g class="layer-between"><g class="shapelayer"/><g class="imagelayer"/></g><path class="xlines-below"/><path class="ylines-below"/><g class="overlines-below"/><g class="xaxislayer-below"/><g class="yaxislayer-below"/><g class="overaxes-below"/><g class="overplot"><g class="xy" transform="translate(80,60)" clip-path="url(#clipd09784xyplot)"><g class="barlayer mlayer"><g class="trace bars" style="opacity: 1;"><g class="points"><g class="point"><path d="M7.71,325V160.81A 3,3 0 0 1 10.71,157.81H20.14A 3,3 0 0 1 23.14,160.81V325Z" style="vector-effect: none; opacity: 1; stroke-width: 0.2px; fill: rgb(136, 204, 238); fill-opacity: 1; stroke: rgb(0, 0, 0); stroke-opacity: 1;"/><text class="bartext bartext-outside" text-anchor="middle" data-notex="1" x="0" y="0" style="font-family: 'Times New Roman'; font-size: 15px; fill: rgb(42, 63, 95); fill-opacity: 1; white-space: pre;" transform="translate(15.257282608695652,152.79739130434783)scale(0.6708695652173913)">300</text></g><g class="point"><path d="M84.86,325V202.05A 3,3 0 0 1 87.86,199.05H97.29A 3,3 0 0 1 100.29,202.05V325Z" style="vector-effect: none; opacity: 1; stroke-width: 0.2px; fill: rgb(136, 204, 238); fill-opacity: 1; stroke: rgb(0, 0, 0); stroke-opacity: 1;"/><text class="bartext bartext-outside" text-anchor="middle" data-notex="1" x="0" y="0" style="font-family: 'Times New Roman'; font-size: 15px; fill: rgb(42, 63, 95); fill-opacity: 1; white-space: pre;" transform="translate(92.40728260869565,194.03739130434784)scale(0.6708695652173916)">230</text></g><g class="point"><path d="M162,325V85.57A 3,3 0 0 1 165,82.57H174.43A 3,3 0 0 1 177.43,85.57V325Z" style="vector-effect: none; opacity: 1; stroke-width: 0.2px; fill: rgb(136, 204, 238); fill-opacity: 1; stroke: rgb(0, 0, 0); stroke-opacity: 1;"/><text class="bartext bartext-outside" text-anchor="middle" data-notex="1" x="0" y="0" style="font-family: 'Times New Roman'; font-size: 15px; fill: rgb(42, 63, 95); fill-opacity: 1; white-space: pre;" transform="translate(169.54728260869567,77.55739130434782)scale(0.6708695652173916)">440</text></g><g class="point"><path d="M239.14,325V104.52A 3,3 0 0 1 242.14,101.52H251.57A 3,3 0 0 1 254.57,104.52V325Z" style="vector-effect: none; opacity: 1; stroke-width: 0.2px; fill: rgb(136, 204, 238); fill-opacity: 1; stroke: rgb(0, 0, 0); stroke-opacity: 1;"/><text class="bartext bartext-outside" text-anchor="middle" data-notex="1" x="0" y="0" style="font-family: 'Times New Roman'; font-size: 15px; fill: rgb(42, 63, 95); fill-opacity: 1; white-space: pre;" transform="translate(246.68728260869565,96.50739130434782)scale(0.6708695652173916)">400</text></g><g class="point"><path d="M316.29,325V123.47A 3,3 0 0 1 319.29,120.47H328.71A 3,3 0 0 1 331.71,123.47V325Z" style="vector-effect: none; opacity: 1; stroke-width: 0.2px; fill: rgb(136, 204, 238); fill-opacity: 1; stroke: rgb(0, 0, 0); stroke-opacity: 1;"/><text class="bartext bartext-outside" text-anchor="middle" data-notex="1" x="0" y="0" style="font-family: 'Times New Roman'; font-size: 15px; fill: rgb(42, 63, 95); fill-opacity: 1; white-space: pre;" transform="translate(323.8323913043478,115.45869565217392)scale(0.6704347826086938)">370</text></g><g class="point"><path d="M393.43,325V257.78A 3,3 0 0 1 396.43,254.78H405.86A 3,3 0 0 1 408.86,257.78V325Z" style="vector-effect: none; opacity: 1; stroke-width: 0.2px; fill: rgb(136, 204, 238); fill-opacity: 1; stroke: rgb(0, 0, 0); stroke-opacity: 1;"/><text class="bartext bartext-outside" text-anchor="middle" data-notex="1" x="0" y="0" style="font-family: 'Times New Roman'; font-size: 15px; fill: rgb(42, 63, 95); fill-opacity: 1; white-space: pre;" transform="translate(400.97728260869565,249.76739130434783)scale(0.6708695652173916)">130</text></g><g class="point"><path d="M470.57,325V262.79A 3,3 0 0 1 473.57,259.79H483A 3,3 0 0 1 486,262.79V325Z" style="vector-effect: none; opacity: 1; stroke-width: 0.2px; fill: rgb(136, 204, 238); fill-opacity: 1; stroke: rgb(0, 0, 0); stroke-opacity: 1;"/><text class="bartext bartext-outside" text-anchor="middle" data-notex="1" x="0" y="0" style="font-family: 'Times New Roman'; font-size: 15px; fill: rgb(42, 63, 95); fill-opacity: 1; white-space: pre;" transform="translate(478.11728260869563,254.77739130434784)scale(0.6708695652173916)">120</text></g></g></g><g class="trace bars" style="opacity: 1;"><g class="points"><g class="point"><path d="M23.14,325V292.33A 3,3 0 0 1 26.14,289.33H35.57A 3,3 0 0 1 38.57,292.33V325Z" style="vector-effect: none; opacity: 1; stroke-width: 0.2px; fill: rgb(204, 102, 119); fill-opacity: 1; stroke: rgb(0, 0, 0); stroke-opacity: 1;"/><text class="bartext bartext-outside" text-anchor="middle" data-notex="1" x="0" y="0" style="font-family: 'Times New Roman'; font-size: 15px; fill: rgb(42, 63, 95); fill-opacity: 1; white-space: pre;" transform="translate(30.606129032258064,283.34354838709675)scale(0.9954838709677419)">64</text></g><g class="point"><path d="M100.29,325V303.48A 3,3 0 0 1 103.29,300.48H112.71A 3,3 0 0 1 115.71,303.48V325Z" style="vector-effect: none; opacity: 1; stroke-width: 0.2px; fill: rgb(204, 102, 119); fill-opacity: 1; stroke: rgb(0, 0, 0); stroke-opacity: 1;"/><text class="bartext bartext-outside" text-anchor="middle" data-notex="1" x="0" y="0" style="font-family: 'Times New Roman'; font-size: 15px; fill: rgb(42, 63, 95); fill-opacity: 1; white-space: pre;" transform="translate(107.75129032258064,294.49548387096775)scale(0.9948387096774185)">44</text></g><g class="point"><path d="M177.43,325V286.2A 3,3 0 0 1 180.43,283.2H189.86A 3,3 0 0 1 192.86,286.2V325Z" style="vector-effect: none; opacity: 1; stroke-width: 0.2px; fill: rgb(204, 102, 119); fill-opacity: 1; stroke: rgb(0, 0, 0); stroke-opacity: 1;"/><text class="bartext bartext-outside" text-anchor="middle" data-notex="1" x="0" y="0" style="font-family: 'Times New Roman'; font-size: 15px; fill: rgb(42, 63, 95); fill-opacity: 1; white-space: pre;" transform="translate(185.145,277.2)">75</text></g><g class="point"><path d="M254.57,325V304.59A 3,3 0 0 1 257.57,301.59H267A 3,3 0 0 1 270,304.59V325Z" style="vector-effect: none; opacity: 1; stroke-width: 0.2px; fill: rgb(204, 102, 119); fill-opacity: 1; stroke: rgb(0, 0, 0); stroke-opacity: 1;"/><text class="bartext bartext-outside" text-anchor="middle" data-notex="1" x="0" y="0" style="font-family: 'Times New Roman'; font-size: 15px; fill: rgb(42, 63, 95); fill-opacity: 1; white-space: pre;" transform="translate(262.03612903225803,295.60354838709674)scale(0.9954838709677424)">42</text></g><g class="point"><path d="M331.71,325V283.42A 3,3 0 0 1 334.71,280.42H344.14A 3,3 0 0 1 347.14,283.42V325Z" style="vector-effect: none; opacity: 1; stroke-width: 0.2px; fill: rgb(204, 102, 119); fill-opacity: 1; stroke: rgb(0, 0, 0); stroke-opacity: 1;"/><text class="bartext bartext-outside" text-anchor="middle" data-notex="1" x="0" y="0" style="font-family: 'Times New Roman'; font-size: 15px; fill: rgb(42, 63, 95); fill-opacity: 1; white-space: pre;" transform="translate(339.176129032258,274.4335483870968)scale(0.9954838709677424)">80</text></g><g class="point"><path d="M408.86,325V315.74A 3,3 0 0 1 411.86,312.74H421.29A 3,3 0 0 1 424.29,315.74V325Z" style="vector-effect: none; opacity: 1; stroke-width: 0.2px; fill: rgb(204, 102, 119); fill-opacity: 1; stroke: rgb(0, 0, 0); stroke-opacity: 1;"/><text class="bartext bartext-outside" text-anchor="middle" data-notex="1" x="0" y="0" style="font-family: 'Times New Roman'; font-size: 15px; fill: rgb(42, 63, 95); fill-opacity: 1; white-space: pre;" transform="translate(416.3261290322581,306.75354838709677)scale(0.9954838709677424)">22</text></g><g class="point"><path d="M486,325V315.74A 3,3 0 0 1 489,312.74H498.43A 3,3 0 0 1 501.43,315.74V325Z" style="vector-effect: none; opacity: 1; stroke-width: 0.2px; fill: rgb(204, 102, 119); fill-opacity: 1; stroke: rgb(0, 0, 0); stroke-opacity: 1;"/><text class="bartext bartext-outside" text-anchor="middle" data-notex="1" x="0" y="0" style="font-family: 'Times New Roman'; font-size: 15px; fill: rgb(42, 63, 95); fill-opacity: 1; white-space: pre;" transform="translate(493.4661290322581,306.75354838709677)scale(0.9954838709677424)">22</text></g></g></g><g class="trace bars" style="opacity: 1;"><g class="points"><g class="point"><path d="M38.57,325V307.94A 3,3 0 0 1 41.57,304.94H51A 3,3 0 0 1 54,307.94V325Z" style="vector-effect: none; opacity: 1; stroke-width: 0.2px; fill: rgb(221, 204, 119); fill-opacity: 1; stroke: rgb(0, 0, 0); stroke-opacity: 1;"/><text class="bartext bartext-outside" text-anchor="middle" data-notex="1" x="0" y="0" style="font-family: 'Times New Roman'; font-size: 15px; fill: rgb(42, 63, 95); fill-opacity: 1; white-space: pre;" transform="translate(46.03612903225806,298.95354838709676)scale(0.9954838709677419)">36</text></g><g class="point"><path d="M115.71,325V316.3A 3,3 0 0 1 118.71,313.3H128.14A 3,3 0 0 1 131.14,316.3V325Z" style="vector-effect: none; opacity: 1; stroke-width: 0.2px; fill: rgb(221, 204, 119); fill-opacity: 1; stroke: rgb(0, 0, 0); stroke-opacity: 1;"/><text class="bartext bartext-outside" text-anchor="middle" data-notex="1" x="0" y="0" style="font-family: 'Times New Roman'; font-size: 15px; fill: rgb(42, 63, 95); fill-opacity: 1; white-space: pre;" transform="translate(123.42499999999998,307.3)">21</text></g><g class="point"><path d="M192.86,325V303.48A 3,3 0 0 1 195.86,300.48H205.29A 3,3 0 0 1 208.29,303.48V325Z" style="vector-effect: none; opacity: 1; stroke-width: 0.2px; fill: rgb(221, 204, 119); fill-opacity: 1; stroke: rgb(0, 0, 0); stroke-opacity: 1;"/><text class="bartext bartext-outside" text-anchor="middle" data-notex="1" x="0" y="0" style="font-family: 'Times New Roman'; font-size: 15px; fill: rgb(42, 63, 95); fill-opacity: 1; white-space: pre;" transform="translate(200.32612903225805,294.4935483870968)scale(0.9954838709677405)">44</text></g><g class="point"><path d="M270,325V316.3A 3,3 0 0 1 273,313.3H282.43A 3,3 0 0 1 285.43,316.3V325Z" style="vector-effect: none; opacity: 1; stroke-width: 0.2px; fill: rgb(221, 204, 119); fill-opacity: 1; stroke: rgb(0, 0, 0); stroke-opacity: 1;"/><text class="bartext bartext-outside" text-anchor="middle" data-notex="1" x="0" y="0" style="font-family: 'Times New Roman'; font-size: 15px; fill: rgb(42, 63, 95); fill-opacity: 1; white-space: pre;" transform="translate(277.71500000000003,307.3)">21</text></g><g class="point"><path d="M347.14,325V307.94A 3,3 0 0 1 350.14,304.94H359.57A 3,3 0 0 1 362.57,307.94V325Z" style="vector-effect: none; opacity: 1; stroke-width: 0.2px; fill: rgb(221, 204, 119); fill-opacity: 1; stroke: rgb(0, 0, 0); stroke-opacity: 1;"/><text class="bartext bartext-outside" text-anchor="middle" data-notex="1" x="0" y="0" style="font-family: 'Times New Roman'; font-size: 15px; fill: rgb(42, 63, 95); fill-opacity: 1; white-space: pre;" transform="translate(354.6061290322581,298.95354838709676)scale(0.9954838709677424)">36</text></g><g class="point"><path d="M424.29,325V322.98A 3,3 0 0 1 427.29,319.98H436.71A 3,3 0 0 1 439.71,322.98V325Z" style="vector-effect: none; opacity: 1; stroke-width: 0.2px; fill: rgb(221, 204, 119); fill-opacity: 1; stroke: rgb(0, 0, 0); stroke-opacity: 1;"/><text class="bartext bartext-outside" text-anchor="middle" data-notex="1" x="0" y="0" style="font-family: 'Times New Roman'; font-size: 15px; fill: rgb(42, 63, 95); fill-opacity: 1; white-space: pre;" transform="translate(431.79974025974025,314.57688311688315)scale(0.8010389610389589)">9.0</text></g><g class="point"><path d="M501.43,325V320.2A 3,3 0 0 1 504.43,317.2H513.86A 3,3 0 0 1 516.86,320.2V325Z" style="vector-effect: none; opacity: 1; stroke-width: 0.2px; fill: rgb(221, 204, 119); fill-opacity: 1; stroke: rgb(0, 0, 0); stroke-opacity: 1;"/><text class="bartext bartext-outside" text-anchor="middle" data-notex="1" x="0" y="0" style="font-family: 'Times New Roman'; font-size: 15px; fill: rgb(42, 63, 95); fill-opacity: 1; white-space: pre;" transform="translate(508.89612903225805,311.21354838709675)scale(0.9954838709677424)">14</text></g></g></g><g class="trace bars" style="opacity: 1;"><g class="points"><g class="point"><path d="M54,325V105.08A 3,3 0 0 1 57,102.08H66.43A 3,3 0 0 1 69.43,105.08V325Z" style="vector-effect: none; opacity: 1; stroke-width: 0.2px; fill: rgb(17, 119, 51); fill-opacity: 1; stroke: rgb(0, 0, 0); stroke-opacity: 1;"/><text class="bartext bartext-outside" text-anchor="middle" data-notex="1" x="0" y="0" style="font-family: 'Times New Roman'; font-size: 15px; fill: rgb(42, 63, 95); fill-opacity: 1; white-space: pre;" transform="translate(61.54728260869565,97.06739130434782)scale(0.6708695652173916)">400</text></g><g class="point"><path d="M131.14,325V165.82A 3,3 0 0 1 134.14,162.82H143.57A 3,3 0 0 1 146.57,165.82V325Z" style="vector-effect: none; opacity: 1; stroke-width: 0.2px; fill: rgb(17, 119, 51); fill-opacity: 1; stroke: rgb(0, 0, 0); stroke-opacity: 1;"/><text class="bartext bartext-outside" text-anchor="middle" data-notex="1" x="0" y="0" style="font-family: 'Times New Roman'; font-size: 15px; fill: rgb(42, 63, 95); fill-opacity: 1; white-space: pre;" transform="translate(138.68728260869565,157.80739130434782)scale(0.6708695652173916)">290</text></g><g class="point"><path d="M208.29,325V19.25A 3,3 0 0 1 211.29,16.25H220.71A 3,3 0 0 1 223.71,19.25V325Z" style="vector-effect: none; opacity: 1; stroke-width: 0.2px; fill: rgb(17, 119, 51); fill-opacity: 1; stroke: rgb(0, 0, 0); stroke-opacity: 1;"/><text class="bartext bartext-outside" text-anchor="middle" data-notex="1" x="0" y="0" style="font-family: 'Times New Roman'; font-size: 15px; fill: rgb(42, 63, 95); fill-opacity: 1; white-space: pre;" transform="translate(215.83239130434782,11.238695652173911)scale(0.6704347826086964)">550</text></g><g class="point"><path d="M285.43,325V69.41A 3,3 0 0 1 288.43,66.41H297.86A 3,3 0 0 1 300.86,69.41V325Z" style="vector-effect: none; opacity: 1; stroke-width: 0.2px; fill: rgb(17, 119, 51); fill-opacity: 1; stroke: rgb(0, 0, 0); stroke-opacity: 1;"/><text class="bartext bartext-outside" text-anchor="middle" data-notex="1" x="0" y="0" style="font-family: 'Times New Roman'; font-size: 15px; fill: rgb(42, 63, 95); fill-opacity: 1; white-space: pre;" transform="translate(292.97728260869565,61.39739130434782)scale(0.6708695652173916)">460</text></g><g class="point"><path d="M362.57,325V58.82A 3,3 0 0 1 365.57,55.82H375A 3,3 0 0 1 378,58.82V325Z" style="vector-effect: none; opacity: 1; stroke-width: 0.2px; fill: rgb(17, 119, 51); fill-opacity: 1; stroke: rgb(0, 0, 0); stroke-opacity: 1;"/><text class="bartext bartext-outside" text-anchor="middle" data-notex="1" x="0" y="0" style="font-family: 'Times New Roman'; font-size: 15px; fill: rgb(42, 63, 95); fill-opacity: 1; white-space: pre;" transform="translate(370.11728260869563,50.807391304347824)scale(0.6708695652173916)">480</text></g><g class="point"><path d="M439.71,325V240.5A 3,3 0 0 1 442.71,237.5H452.14A 3,3 0 0 1 455.14,240.5V325Z" style="vector-effect: none; opacity: 1; stroke-width: 0.2px; fill: rgb(17, 119, 51); fill-opacity: 1; stroke: rgb(0, 0, 0); stroke-opacity: 1;"/><text class="bartext bartext-outside" text-anchor="middle" data-notex="1" x="0" y="0" style="font-family: 'Times New Roman'; font-size: 15px; fill: rgb(42, 63, 95); fill-opacity: 1; white-space: pre;" transform="translate(447.2572826086956,232.48739130434782)scale(0.6708695652173916)">160</text></g><g class="point"><path d="M516.86,325V242.73A 3,3 0 0 1 519.86,239.73H529.29A 3,3 0 0 1 532.29,242.73V325Z" style="vector-effect: none; opacity: 1; stroke-width: 0.2px; fill: rgb(17, 119, 51); fill-opacity: 1; stroke: rgb(0, 0, 0); stroke-opacity: 1;"/><text class="bartext bartext-outside" text-anchor="middle" data-notex="1" x="0" y="0" style="font-family: 'Times New Roman'; font-size: 15px; fill: rgb(42, 63, 95); fill-opacity: 1; white-space: pre;" transform="translate(524.4072826086957,234.7173913043478)scale(0.6708695652173892)">150</text></g></g></g></g></g></g><path class="xlines-above crisp" d="M0,0" style="fill: none;"/><path class="ylines-above crisp" d="M0,0" style="fill: none;"/><g class="overlines-above"/><g class="xaxislayer-above"><g class="xtick"><text text-anchor="start" x="0" y="401" transform="translate(118.57,0) rotate(29.999999999999996,0,393.5)" style="font-family: 'Times New Roman'; font-size: 15px; fill: rgb(42, 63, 95); fill-opacity: 1; white-space: pre; opacity: 1;">Aperture</text></g><g class="xtick"><text text-anchor="start" x="0" y="401" transform="translate(195.70999999999998,0) rotate(29.999999999999996,0,393.5)" style="font-family: 'Times New Roman'; font-size: 15px; fill: rgb(42, 63, 95); fill-opacity: 1; white-space: pre; opacity: 1;">Chaotic Motion</text></g><g class="xtick"><text text-anchor="start" x="0" y="401" transform="translate(272.86,0) rotate(29.999999999999996,0,393.5)" style="font-family: 'Times New Roman'; font-size: 15px; fill: rgb(42, 63, 95); fill-opacity: 1; white-space: pre; opacity: 1;">Dominant Multiple</text></g><g class="xtick"><text text-anchor="start" x="0" y="401" transform="translate(350,0) rotate(29.999999999999996,0,393.5)" style="font-family: 'Times New Roman'; font-size: 15px; fill: rgb(42, 63, 95); fill-opacity: 1; white-space: pre; opacity: 1;">Explosion</text></g><g class="xtick"><text text-anchor="start" x="0" y="401" transform="translate(427.14,0) rotate(29.999999999999996,0,393.5)" style="font-family: 'Times New Roman'; font-size: 15px; fill: rgb(42, 63, 95); fill-opacity: 1; white-space: pre; opacity: 1;">Fire</text></g><g class="xtick"><text text-anchor="start" x="0" y="401" transform="translate(504.29,0) rotate(29.999999999999996,0,393.5)" style="font-family: 'Times New Roman'; font-size: 15px; fill: rgb(42, 63, 95); fill-opacity: 1; white-space: pre; opacity: 1;">Flag</text></g><g class="xtick"><text text-anchor="start" x="0" y="401" transform="translate(581.4300000000001,0) rotate(29.999999999999996,0,393.5)" style="font-family: 'Times New Roman'; font-size: 15px; fill: rgb(42, 63, 95); fill-opacity: 1; white-space: pre; opacity: 1;">Rotary Motion</text></g></g><g class="yaxislayer-above"><g class="ytick"><text text-anchor="end" x="79" y="5.25" transform="translate(0,385)" style="font-family: 'Times New Roman'; font-size: 15px; fill: rgb(42, 63, 95); fill-opacity: 1; white-space: pre; opacity: 1;">0</text></g><g class="ytick"><text text-anchor="end" x="79" y="5.25" style="font-family: 'Times New Roman'; font-size: 15px; fill: rgb(42, 63, 95); fill-opacity: 1; white-space: pre; opacity: 1;" transform="translate(0,329.27)">100</text></g><g class="ytick"><text text-anchor="end" x="79" y="5.25" style="font-family: 'Times New Roman'; font-size: 15px; fill: rgb(42, 63, 95); fill-opacity: 1; white-space: pre; opacity: 1;" transform="translate(0,273.53999999999996)">200</text></g><g class="ytick"><text text-anchor="end" x="79" y="5.25" style="font-family: 'Times New Roman'; font-size: 15px; fill: rgb(42, 63, 95); fill-opacity: 1; white-space: pre; opacity: 1;" transform="translate(0,217.81)">300</text></g><g class="ytick"><text text-anchor="end" x="79" y="5.25" style="font-family: 'Times New Roman'; font-size: 15px; fill: rgb(42, 63, 95); fill-opacity: 1; white-space: pre; opacity: 1;" transform="translate(0,162.07999999999998)">400</text></g><g class="ytick"><text text-anchor="end" x="79" y="5.25" style="font-family: 'Times New Roman'; font-size: 15px; fill: rgb(42, 63, 95); fill-opacity: 1; white-space: pre; opacity: 1;" transform="translate(0,106.34)">500</text></g></g><g class="overaxes-above"/></g></g><g class="polarlayer"/><g class="smithlayer"/><g class="ternarylayer"/><g class="geolayer"/><g class="funnelarealayer"/><g class="pielayer"/><g class="iciclelayer"/><g class="treemaplayer"/><g class="sunburstlayer"/><g class="glimages"/><defs id="topdefs-d09784"><g class="clips"/><clipPath id="legendd09784"><rect width="74" height="124" x="0" y="0"/></clipPath></defs><g class="layer-above"><g class="imagelayer"/><g class="shapelayer"/></g><g class="infolayer"><g class="legend" pointer-events="all" transform="translate(540.6,63.25)"><rect class="bg" shape-rendering="crispEdges" style="stroke: rgb(68, 68, 68); stroke-opacity: 1; fill: rgb(0, 0, 0); fill-opacity: 0.1; stroke-width: 0px;" width="74" height="124" x="0" y="0"/><g class="scrollbox" transform="" clip-path="url(#legendd09784)"><text class="legendtitletext" text-anchor="start" x="2" y="23.400000000000002" style="font-family: 'Times New Roman'; font-size: 18px; fill: rgb(42, 63, 95); fill-opacity: 1; white-space: pre;">Type</text><g class="groups" transform=""><g class="traces" transform="translate(0,39.650000000000006)" style="opacity: 1;"><text class="legendtext" text-anchor="start" x="40" y="5.85" style="font-family: 'Times New Roman'; font-size: 15px; fill: rgb(42, 63, 95); fill-opacity: 1; white-space: pre;">train</text><g class="layers" style="opacity: 1;"><g class="legendfill"/><g class="legendlines"/><g class="legendsymbols"><g class="legendpoints"><path class="legendundefined" d="M6,3a3,3,0,0,1-3,3H-3a3,3,0,0,1-3-3V-3a3,3,0,0,1,3-3H3a3,3,0,0,1,3,3Z" transform="translate(20,0)" style="stroke-width: 0.2px; fill: rgb(136, 204, 238); fill-opacity: 1; stroke: rgb(0, 0, 0); stroke-opacity: 1;"/></g></g></g><rect class="legendtoggle" x="0" y="-11.25" width="69" height="22.5" style="fill: rgb(0, 0, 0); fill-opacity: 0;"/></g></g><g class="groups" transform=""><g class="traces" transform="translate(0,62.150000000000006)" style="opacity: 1;"><text class="legendtext" text-anchor="start" x="40" y="5.85" style="font-family: 'Times New Roman'; font-size: 15px; fill: rgb(42, 63, 95); fill-opacity: 1; white-space: pre;">test</text><g class="layers" style="opacity: 1;"><g class="legendfill"/><g class="legendlines"/><g class="legendsymbols"><g class="legendpoints"><path class="legendundefined" d="M6,3a3,3,0,0,1-3,3H-3a3,3,0,0,1-3-3V-3a3,3,0,0,1,3-3H3a3,3,0,0,1,3,3Z" transform="translate(20,0)" style="stroke-width: 0.2px; fill: rgb(204, 102, 119); fill-opacity: 1; stroke: rgb(0, 0, 0); stroke-opacity: 1;"/></g></g></g><rect class="legendtoggle" x="0" y="-11.25" width="69" height="22.5" style="fill: rgb(0, 0, 0); fill-opacity: 0;"/></g></g><g class="groups" transform=""><g class="traces" transform="translate(0,84.65)" style="opacity: 1;"><text class="legendtext" text-anchor="start" x="40" y="5.85" style="font-family: 'Times New Roman'; font-size: 15px; fill: rgb(42, 63, 95); fill-opacity: 1; white-space: pre;">val</text><g class="layers" style="opacity: 1;"><g class="legendfill"/><g class="legendlines"/><g class="legendsymbols"><g class="legendpoints"><path class="legendundefined" d="M6,3a3,3,0,0,1-3,3H-3a3,3,0,0,1-3-3V-3a3,3,0,0,1,3-3H3a3,3,0,0,1,3,3Z" transform="translate(20,0)" style="stroke-width: 0.2px; fill: rgb(221, 204, 119); fill-opacity: 1; stroke: rgb(0, 0, 0); stroke-opacity: 1;"/></g></g></g><rect class="legendtoggle" x="0" y="-11.25" width="69" height="22.5" style="fill: rgb(0, 0, 0); fill-opacity: 0;"/></g></g><g class="groups" transform=""><g class="traces" transform="translate(0,107.15)" style="opacity: 1;"><text class="legendtext" text-anchor="start" x="40" y="5.85" style="font-family: 'Times New Roman'; font-size: 15px; fill: rgb(42, 63, 95); fill-opacity: 1; white-space: pre;">total</text><g class="layers" style="opacity: 1;"><g class="legendfill"/><g class="legendlines"/><g class="legendsymbols"><g class="legendpoints"><path class="legendundefined" d="M6,3a3,3,0,0,1-3,3H-3a3,3,0,0,1-3-3V-3a3,3,0,0,1,3-3H3a3,3,0,0,1,3,3Z" transform="translate(20,0)" style="stroke-width: 0.2px; fill: rgb(17, 119, 51); fill-opacity: 1; stroke: rgb(0, 0, 0); stroke-opacity: 1;"/></g></g></g><rect class="legendtoggle" x="0" y="-11.25" width="69" height="22.5" style="fill: rgb(0, 0, 0); fill-opacity: 0;"/></g></g></g><rect class="scrollbar" rx="20" ry="3" width="0" height="0" style="fill: rgb(128, 139, 164); fill-opacity: 1;" x="0" y="0"/></g><g class="g-gtitle"/><g class="g-xtitle"><text class="xtitle" x="350" y="487.56875" text-anchor="middle" style="opacity: 1; font-family: 'Times New Roman'; font-size: 18px; fill: rgb(42, 63, 95); fill-opacity: 1; white-space: pre;">Data</text></g><g class="g-ytitle"><text class="ytitle" transform="rotate(-90,35.7,222.5)" x="35.7" y="222.5" text-anchor="middle" style="opacity: 1; font-family: 'Times New Roman'; font-size: 18px; fill: rgb(42, 63, 95); fill-opacity: 1; white-space: pre;">Count</text></g></g></svg>