<svg class="main-svg" xmlns="http://www.w3.org/2000/svg" xmlns:xlink="http://www.w3.org/1999/xlink" width="700" height="500" style="" viewBox="0 0 700 500"><rect x="0" y="0" width="700" height="500" style="fill: rgb(255, 255, 255); fill-opacity: 1;"/><defs id="defs-efa6b6"><g class="clips"><clipPath id="clipefa6b6xyplot" class="plotclip"><rect width="540" height="325"/></clipPath><clipPath class="axesclip" id="clipefa6b6x"><rect x="80" y="0" width="540" height="500"/></clipPath><clipPath class="axesclip" id="clipefa6b6y"><rect x="0" y="60" width="700" height="325"/></clipPath><clipPath class="axesclip" id="clipefa6b6xy"><rect x="80" y="60" width="540" height="325"/></clipPath></g><g class="gradients"/><g class="patterns"/></defs><g class="bglayer"><rect class="bg" x="80" y="60" width="540" height="325" style="fill: rgb(229, 236, 246); fill-opacity: 1; stroke-width: 0;"/></g><g class="layer-below"><g class="imagelayer"/><g class="shapelayer"/></g><g class="cartesianlayer"><g class="subplot xy"><g class="layer-subplot"><g class="shapelayer"/><g class="imagelayer"/></g><g class="minor-gridlayer"><g class="x"/><g class="y"/></g><g class="gridlayer"><g class="x"/><g class="y"><path class="ygrid crisp" transform="translate(0,314.02)" d="M80,0h540" style="stroke: rgb(255, 255, 255); stroke-opacity: 1; stroke-width: 1px;"/><path class="ygrid crisp" transform="translate(0,243.05)" d="M80,0h540" style="stroke: rgb(255, 255, 255); stroke-opacity: 1; stroke-width: 1px;"/><path class="ygrid crisp" transform="translate(0,172.07)" d="M80,0h540" style="stroke: rgb(255, 255, 255); stroke-opacity: 1; stroke-width: 1px;"/><path class="ygrid crisp" transform="translate(0,101.09)" d="M80,0h540" style="stroke: rgb(255, 255, 255); stroke-opacity: 1; stroke-width: 1px;"/></g></g><g class="zerolinelayer"><path class="yzl zl crisp" transform="translate(0,385)" d="M80,0h540" style="stroke: rgb(255, 255, 255); stroke-opacity: 1; stroke-width: 2px;"/></g><g class="layer-between"><g class="shapelayer"/><g class="imagelayer"/></g><path class="xlines-below"/><path class="ylines-below"/><g class="overlines-below"/><g class="xaxislayer-below"/><g class="yaxislayer-below"/><g class="overaxes-below"/><g class="overplot"><g class="xy" transform="translate(80,60)" clip-path="url(#clipefa6b6xyplot)"><g class="barlayer mlayer"><g class="trace bars" style="opacity: 1;"><g class="points"><g class="point"><path d="M7.71,325V115.07A 3,3 0 0 1 10.71,112.07H25.29A 3,3 0 0 1 28.29,115.07V325Z" style="vector-effect: none; opacity: 1; stroke-width: 0.2px; fill: rgb(102, 197, 204); fill-opacity: 1; stroke: rgb(0, 0, 0); stroke-opacity: 1;"/><text class="bartext bartext-outside" text-anchor="middle" data-notex="1" x="0" y="0" style="font-family: 'Times New Roman'; font-size: 15px; fill: rgb(42, 63, 95); fill-opacity: 1; white-space: pre;" transform="translate(17.776304347826088,106.38565217391303)scale(0.8947826086956521)">300</text></g><g class="point"><path d="M84.86,325V167.59A 3,3 0 0 1 87.86,164.59H102.43A 3,3 0 0 1 105.43,167.59V325Z" style="vector-effect: none; opacity: 1; stroke-width: 0.2px; fill: rgb(102, 197, 204); fill-opacity: 1; stroke: rgb(0, 0, 0); stroke-opacity: 1;"/><text class="bartext bartext-outside" text-anchor="middle" data-notex="1" x="0" y="0" style="font-family: 'Times New Roman'; font-size: 15px; fill: rgb(42, 63, 95); fill-opacity: 1; white-space: pre;" transform="translate(94.92141304347827,158.90695652173912)scale(0.8943478260869568)">230</text></g><g class="point"><path d="M162,325V19.25A 3,3 0 0 1 165,16.25H179.57A 3,3 0 0 1 182.57,19.25V325Z" style="vector-effect: none; opacity: 1; stroke-width: 0.2px; fill: rgb(102, 197, 204); fill-opacity: 1; stroke: rgb(0, 0, 0); stroke-opacity: 1;"/><text class="bartext bartext-outside" text-anchor="middle" data-notex="1" x="0" y="0" style="font-family: 'Times New Roman'; font-size: 15px; fill: rgb(42, 63, 95); fill-opacity: 1; white-space: pre;" transform="translate(172.06141304347827,10.566956521739131)scale(0.8943478260869562)">440</text></g><g class="point"><path d="M239.14,325V43.38A 3,3 0 0 1 242.14,40.38H256.71A 3,3 0 0 1 259.71,43.38V325Z" style="vector-effect: none; opacity: 1; stroke-width: 0.2px; fill: rgb(102, 197, 204); fill-opacity: 1; stroke: rgb(0, 0, 0); stroke-opacity: 1;"/><text class="bartext bartext-outside" text-anchor="middle" data-notex="1" x="0" y="0" style="font-family: 'Times New Roman'; font-size: 15px; fill: rgb(42, 63, 95); fill-opacity: 1; white-space: pre;" transform="translate(249.20141304347825,34.69695652173913)scale(0.8943478260869562)">400</text></g><g class="point"><path d="M316.29,325V67.51A 3,3 0 0 1 319.29,64.51H333.86A 3,3 0 0 1 336.86,67.51V325Z" style="vector-effect: none; opacity: 1; stroke-width: 0.2px; fill: rgb(102, 197, 204); fill-opacity: 1; stroke: rgb(0, 0, 0); stroke-opacity: 1;"/><text class="bartext bartext-outside" text-anchor="middle" data-notex="1" x="0" y="0" style="font-family: 'Times New Roman'; font-size: 15px; fill: rgb(42, 63, 95); fill-opacity: 1; white-space: pre;" transform="translate(326.3514130434783,58.826956521739135)scale(0.8943478260869562)">370</text></g><g class="point"><path d="M393.43,325V238.57A 3,3 0 0 1 396.43,235.57H411A 3,3 0 0 1 414,238.57V325Z" style="vector-effect: none; opacity: 1; stroke-width: 0.2px; fill: rgb(102, 197, 204); fill-opacity: 1; stroke: rgb(0, 0, 0); stroke-opacity: 1;"/><text class="bartext bartext-outside" text-anchor="middle" data-notex="1" x="0" y="0" style="font-family: 'Times New Roman'; font-size: 15px; fill: rgb(42, 63, 95); fill-opacity: 1; white-space: pre;" transform="translate(403.4914130434783,229.88695652173914)scale(0.8943478260869562)">130</text></g><g class="point"><path d="M470.57,325V244.96A 3,3 0 0 1 473.57,241.96H488.14A 3,3 0 0 1 491.14,244.96V325Z" style="vector-effect: none; opacity: 1; stroke-width: 0.2px; fill: rgb(102, 197, 204); fill-opacity: 1; stroke: rgb(0, 0, 0); stroke-opacity: 1;"/><text class="bartext bartext-outside" text-anchor="middle" data-notex="1" x="0" y="0" style="font-family: 'Times New Roman'; font-size: 15px; fill: rgb(42, 63, 95); fill-opacity: 1; white-space: pre;" transform="translate(480.6314130434783,236.27695652173915)scale(0.8943478260869562)">120</text></g></g></g><g class="trace bars" style="opacity: 1;"><g class="points"><g class="point"><path d="M28.29,325V282.57A 3,3 0 0 1 31.29,279.57H45.86A 3,3 0 0 1 48.86,282.57V325Z" style="vector-effect: none; opacity: 1; stroke-width: 0.2px; fill: rgb(246, 207, 113); fill-opacity: 1; stroke: rgb(0, 0, 0); stroke-opacity: 1;"/><text class="bartext bartext-outside" text-anchor="middle" data-notex="1" x="0" y="0" style="font-family: 'Times New Roman'; font-size: 15px; fill: rgb(42, 63, 95); fill-opacity: 1; white-space: pre;" transform="translate(38.325,273.57)">64</text></g><g class="point"><path d="M105.43,325V296.77A 3,3 0 0 1 108.43,293.77H123A 3,3 0 0 1 126,296.77V325Z" style="vector-effect: none; opacity: 1; stroke-width: 0.2px; fill: rgb(246, 207, 113); fill-opacity: 1; stroke: rgb(0, 0, 0); stroke-opacity: 1;"/><text class="bartext bartext-outside" text-anchor="middle" data-notex="1" x="0" y="0" style="font-family: 'Times New Roman'; font-size: 15px; fill: rgb(42, 63, 95); fill-opacity: 1; white-space: pre;" transform="translate(115.465,287.77)">44</text></g><g class="point"><path d="M182.57,325V274.77A 3,3 0 0 1 185.57,271.77H200.14A 3,3 0 0 1 203.14,274.77V325Z" style="vector-effect: none; opacity: 1; stroke-width: 0.2px; fill: rgb(246, 207, 113); fill-opacity: 1; stroke: rgb(0, 0, 0); stroke-opacity: 1;"/><text class="bartext bartext-outside" text-anchor="middle" data-notex="1" x="0" y="0" style="font-family: 'Times New Roman'; font-size: 15px; fill: rgb(42, 63, 95); fill-opacity: 1; white-space: pre;" transform="translate(192.855,265.77)">75</text></g><g class="point"><path d="M259.71,325V298.19A 3,3 0 0 1 262.71,295.19H277.29A 3,3 0 0 1 280.29,298.19V325Z" style="vector-effect: none; opacity: 1; stroke-width: 0.2px; fill: rgb(246, 207, 113); fill-opacity: 1; stroke: rgb(0, 0, 0); stroke-opacity: 1;"/><text class="bartext bartext-outside" text-anchor="middle" data-notex="1" x="0" y="0" style="font-family: 'Times New Roman'; font-size: 15px; fill: rgb(42, 63, 95); fill-opacity: 1; white-space: pre;" transform="translate(269.75,289.19)">42</text></g><g class="point"><path d="M336.86,325V271.22A 3,3 0 0 1 339.86,268.22H354.43A 3,3 0 0 1 357.43,271.22V325Z" style="vector-effect: none; opacity: 1; stroke-width: 0.2px; fill: rgb(246, 207, 113); fill-opacity: 1; stroke: rgb(0, 0, 0); stroke-opacity: 1;"/><text class="bartext bartext-outside" text-anchor="middle" data-notex="1" x="0" y="0" style="font-family: 'Times New Roman'; font-size: 15px; fill: rgb(42, 63, 95); fill-opacity: 1; white-space: pre;" transform="translate(346.895,262.22)">80</text></g><g class="point"><path d="M414,325V312.39A 3,3 0 0 1 417,309.39H431.57A 3,3 0 0 1 434.57,312.39V325Z" style="vector-effect: none; opacity: 1; stroke-width: 0.2px; fill: rgb(246, 207, 113); fill-opacity: 1; stroke: rgb(0, 0, 0); stroke-opacity: 1;"/><text class="bartext bartext-outside" text-anchor="middle" data-notex="1" x="0" y="0" style="font-family: 'Times New Roman'; font-size: 15px; fill: rgb(42, 63, 95); fill-opacity: 1; white-space: pre;" transform="translate(424.03499999999997,303.39)">22</text></g><g class="point"><path d="M491.14,325V312.39A 3,3 0 0 1 494.14,309.39H508.71A 3,3 0 0 1 511.71,312.39V325Z" style="vector-effect: none; opacity: 1; stroke-width: 0.2px; fill: rgb(246, 207, 113); fill-opacity: 1; stroke: rgb(0, 0, 0); stroke-opacity: 1;"/><text class="bartext bartext-outside" text-anchor="middle" data-notex="1" x="0" y="0" style="font-family: 'Times New Roman'; font-size: 15px; fill: rgb(42, 63, 95); fill-opacity: 1; white-space: pre;" transform="translate(501.17499999999995,303.39)">22</text></g></g></g><g class="trace bars" style="opacity: 1;"><g class="points"><g class="point"><path d="M48.86,325V302.45A 3,3 0 0 1 51.86,299.45H66.43A 3,3 0 0 1 69.43,302.45V325Z" style="vector-effect: none; opacity: 1; stroke-width: 0.2px; fill: rgb(248, 156, 116); fill-opacity: 1; stroke: rgb(0, 0, 0); stroke-opacity: 1;"/><text class="bartext bartext-outside" text-anchor="middle" data-notex="1" x="0" y="0" style="font-family: 'Times New Roman'; font-size: 15px; fill: rgb(42, 63, 95); fill-opacity: 1; white-space: pre;" transform="translate(58.895,293.45)">36</text></g><g class="point"><path d="M126,325V313.09A 3,3 0 0 1 129,310.09H143.57A 3,3 0 0 1 146.57,313.09V325Z" style="vector-effect: none; opacity: 1; stroke-width: 0.2px; fill: rgb(248, 156, 116); fill-opacity: 1; stroke: rgb(0, 0, 0); stroke-opacity: 1;"/><text class="bartext bartext-outside" text-anchor="middle" data-notex="1" x="0" y="0" style="font-family: 'Times New Roman'; font-size: 15px; fill: rgb(42, 63, 95); fill-opacity: 1; white-space: pre;" transform="translate(136.285,304.09)">21</text></g><g class="point"><path d="M203.14,325V296.77A 3,3 0 0 1 206.14,293.77H220.71A 3,3 0 0 1 223.71,296.77V325Z" style="vector-effect: none; opacity: 1; stroke-width: 0.2px; fill: rgb(248, 156, 116); fill-opacity: 1; stroke: rgb(0, 0, 0); stroke-opacity: 1;"/><text class="bartext bartext-outside" text-anchor="middle" data-notex="1" x="0" y="0" style="font-family: 'Times New Roman'; font-size: 15px; fill: rgb(42, 63, 95); fill-opacity: 1; white-space: pre;" transform="translate(213.175,287.77)">44</text></g><g class="point"><path d="M280.29,325V313.09A 3,3 0 0 1 283.29,310.09H297.86A 3,3 0 0 1 300.86,313.09V325Z" style="vector-effect: none; opacity: 1; stroke-width: 0.2px; fill: rgb(248, 156, 116); fill-opacity: 1; stroke: rgb(0, 0, 0); stroke-opacity: 1;"/><text class="bartext bartext-outside" text-anchor="middle" data-notex="1" x="0" y="0" style="font-family: 'Times New Roman'; font-size: 15px; fill: rgb(42, 63, 95); fill-opacity: 1; white-space: pre;" transform="translate(290.57500000000005,304.09)">21</text></g><g class="point"><path d="M357.43,325V302.45A 3,3 0 0 1 360.43,299.45H375A 3,3 0 0 1 378,302.45V325Z" style="vector-effect: none; opacity: 1; stroke-width: 0.2px; fill: rgb(248, 156, 116); fill-opacity: 1; stroke: rgb(0, 0, 0); stroke-opacity: 1;"/><text class="bartext bartext-outside" text-anchor="middle" data-notex="1" x="0" y="0" style="font-family: 'Times New Roman'; font-size: 15px; fill: rgb(42, 63, 95); fill-opacity: 1; white-space: pre;" transform="translate(367.46500000000003,293.45)">36</text></g><g class="point"><path d="M434.57,325V321.61A 3,3 0 0 1 437.57,318.61H452.14A 3,3 0 0 1 455.14,321.61V325Z" style="vector-effect: none; opacity: 1; stroke-width: 0.2px; fill: rgb(248, 156, 116); fill-opacity: 1; stroke: rgb(0, 0, 0); stroke-opacity: 1;"/><text class="bartext bartext-outside" text-anchor="middle" data-notex="1" x="0" y="0" style="font-family: 'Times New Roman'; font-size: 15px; fill: rgb(42, 63, 95); fill-opacity: 1; white-space: pre;" transform="translate(444.605,312.61)">9.0</text></g><g class="point"><path d="M511.71,325V318.06A 3,3 0 0 1 514.71,315.06H529.29A 3,3 0 0 1 532.29,318.06V325Z" style="vector-effect: none; opacity: 1; stroke-width: 0.2px; fill: rgb(248, 156, 116); fill-opacity: 1; stroke: rgb(0, 0, 0); stroke-opacity: 1;"/><text class="bartext bartext-outside" text-anchor="middle" data-notex="1" x="0" y="0" style="font-family: 'Times New Roman'; font-size: 15px; fill: rgb(42, 63, 95); fill-opacity: 1; white-space: pre;" transform="translate(521.75,309.06)">14</text></g></g></g></g></g></g><path class="xlines-above crisp" d="M0,0" style="fill: none;"/><path class="ylines-above crisp" d="M0,0" style="fill: none;"/><g class="overlines-above"/><g class="xaxislayer-above"><g class="xtick"><text text-anchor="start" x="0" y="401" transform="translate(118.57,0) rotate(29.999999999999996,0,393.5)" style="font-family: 'Times New Roman'; font-size: 15px; fill: rgb(42, 63, 95); fill-opacity: 1; white-space: pre; opacity: 1;">Aperture</text></g><g class="xtick"><text text-anchor="start" x="0" y="401" transform="translate(195.70999999999998,0) rotate(29.999999999999996,0,393.5)" style="font-family: 'Times New Roman'; font-size: 15px; fill: rgb(42, 63, 95); fill-opacity: 1; white-space: pre; opacity: 1;">Chaotic Motion</text></g><g class="xtick"><text text-anchor="start" x="0" y="401" transform="translate(272.86,0) rotate(29.999999999999996,0,393.5)" style="font-family: 'Times New Roman'; font-size: 15px; fill: rgb(42, 63, 95); fill-opacity: 1; white-space: pre; opacity: 1;">Dominant Multiple</text></g><g class="xtick"><text text-anchor="start" x="0" y="401" transform="translate(350,0) rotate(29.999999999999996,0,393.5)" style="font-family: 'Times New Roman'; font-size: 15px; fill: rgb(42, 63, 95); fill-opacity: 1; white-space: pre; opacity: 1;">Explosion</text></g><g class="xtick"><text text-anchor="start" x="0" y="401" transform="translate(427.14,0) rotate(29.999999999999996,0,393.5)" style="font-family: 'Times New Roman'; font-size: 15px; fill: rgb(42, 63, 95); fill-opacity: 1; white-space: pre; opacity: 1;">Fire</text></g><g class="xtick"><text text-anchor="start" x="0" y="401" transform="translate(504.29,0) rotate(29.999999999999996,0,393.5)" style="font-family: 'Times New Roman'; font-size: 15px; fill: rgb(42, 63, 95); fill-opacity: 1; white-space: pre; opacity: 1;">Flag</text></g><g class="xtick"><text text-anchor="start" x="0" y="401" transform="translate(581.4300000000001,0) rotate(29.999999999999996,0,393.5)" style="font-family: 'Times New Roman'; font-size: 15px; fill: rgb(42, 63, 95); fill-opacity: 1; white-space: pre; opacity: 1;">Rotary Motion</text></g></g><g class="yaxislayer-above"><g class="ytick"><text text-anchor="end" x="79" y="5.25" transform="translate(0,385)" style="font-family: 'Times New Roman'; font-size: 15px; fill: rgb(42, 63, 95); fill-opacity: 1; white-space: pre; opacity: 1;">0</text></g><g class="ytick"><text text-anchor="end" x="79" y="5.25" style="font-family: 'Times New Roman'; font-size: 15px; fill: rgb(42, 63, 95); fill-opacity: 1; white-space: pre; opacity: 1;" transform="translate(0,314.02)">100</text></g><g class="ytick"><text text-anchor="end" x="79" y="5.25" style="font-family: 'Times New Roman'; font-size: 15px; fill: rgb(42, 63, 95); fill-opacity: 1; white-space: pre; opacity: 1;" transform="translate(0,243.05)">200</text></g><g class="ytick"><text text-anchor="end" x="79" y="5.25" style="font-family: 'Times New Roman'; font-size: 15px; fill: rgb(42, 63, 95); fill-opacity: 1; white-space: pre; opacity: 1;" transform="translate(0,172.07)">300</text></g><g class="ytick"><text text-anchor="end" x="79" y="5.25" style="font-family: 'Times New Roman'; font-size: 15px; fill: rgb(42, 63, 95); fill-opacity: 1; white-space: pre; opacity: 1;" transform="translate(0,101.09)">400</text></g></g><g class="overaxes-above"/></g></g><g class="polarlayer"/><g class="smithlayer"/><g class="ternarylayer"/><g class="geolayer"/><g class="funnelarealayer"/><g class="pielayer"/><g class="iciclelayer"/><g class="treemaplayer"/><g class="sunburstlayer"/><g class="glimages"/><defs id="topdefs-efa6b6"><g class="clips"/><clipPath id="legendefa6b6"><rect width="74" height="101" x="0" y="0"/></clipPath></defs><g class="layer-above"><g class="imagelayer"/><g class="shapelayer"/></g><g class="infolayer"><g class="legend" pointer-events="all" transform="translate(540.6,63.25)"><rect class="bg" shape-rendering="crispEdges" width="74" height="101" x="0" y="0" style="stroke: rgb(68, 68, 68); stroke-opacity: 1; fill: rgb(0, 0, 0); fill-opacity: 0.1; stroke-width: 0px;"/><g class="scrollbox" transform="" clip-path="url(#legendefa6b6)"><text class="legendtitletext" text-anchor="start" x="2" y="23.400000000000002" style="font-family: 'Times New Roman'; font-size: 18px; fill: rgb(42, 63, 95); fill-opacity: 1; white-space: pre;">Type</text><g class="groups" transform=""><g class="traces" transform="translate(0,39.650000000000006)" style="opacity: 1;"><text class="legendtext" text-anchor="start" x="40" y="5.85" style="font-family: 'Times New Roman'; font-size: 15px; fill: rgb(42, 63, 95); fill-opacity: 1; white-space: pre;">train</text><g class="layers" style="opacity: 1;"><g class="legendfill"/><g class="legendlines"/><g class="legendsymbols"><g class="legendpoints"><path class="legendundefined" d="M6,3a3,3,0,0,1-3,3H-3a3,3,0,0,1-3-3V-3a3,3,0,0,1,3-3H3a3,3,0,0,1,3,3Z" transform="translate(20,0)" style="stroke-width: 0.2px; fill: rgb(102, 197, 204); fill-opacity: 1; stroke: rgb(0, 0, 0); stroke-opacity: 1;"/></g></g></g><rect class="legendtoggle" x="0" y="-11.25" width="69" height="22.5" style="fill: rgb(0, 0, 0); fill-opacity: 0;"/></g></g><g class="groups" transform=""><g class="traces" transform="translate(0,62.150000000000006)" style="opacity: 1;"><text class="legendtext" text-anchor="start" x="40" y="5.85" style="font-family: 'Times New Roman'; font-size: 15px; fill: rgb(42, 63, 95); fill-opacity: 1; white-space: pre;">test</text><g class="layers" style="opacity: 1;"><g class="legendfill"/><g class="legendlines"/><g class="legendsymbols"><g class="legendpoints"><path class="legendundefined" d="M6,3a3,3,0,0,1-3,3H-3a3,3,0,0,1-3-3V-3a3,3,0,0,1,3-3H3a3,3,0,0,1,3,3Z" transform="translate(20,0)" style="stroke-width: 0.2px; fill: rgb(246, 207, 113); fill-opacity: 1; stroke: rgb(0, 0, 0); stroke-opacity: 1;"/></g></g></g><rect class="legendtoggle" x="0" y="-11.25" width="69" height="22.5" style="fill: rgb(0, 0, 0); fill-opacity: 0;"/></g></g><g class="groups" transform=""><g class="traces" transform="translate(0,84.65)" style="opacity: 1;"><text class="legendtext" text-anchor="start" x="40" y="5.85" style="font-family: 'Times New Roman'; font-size: 15px; fill: rgb(42, 63, 95); fill-opacity: 1; white-space: pre;">val</text><g class="layers" style="opacity: 1;"><g class="legendfill"/><g class="legendlines"/><g class="legendsymbols"><g class="legendpoints"><path class="legendundefined" d="M6,3a3,3,0,0,1-3,3H-3a3,3,0,0,1-3-3V-3a3,3,0,0,1,3-3H3a3,3,0,0,1,3,3Z" transform="translate(20,0)" style="stroke-width: 0.2px; fill: rgb(248, 156, 116); fill-opacity: 1; stroke: rgb(0, 0, 0); stroke-opacity: 1;"/></g></g></g><rect class="legendtoggle" x="0" y="-11.25" width="69" height="22.5" style="fill: rgb(0, 0, 0); fill-opacity: 0;"/></g></g></g><rect class="scrollbar" rx="20" ry="3" width="0" height="0" x="0" y="0" style="fill: rgb(128, 139, 164); fill-opacity: 1;"/></g><g class="g-gtitle"/><g class="g-xtitle"><text class="xtitle" x="350" y="487.56875" text-anchor="middle" style="opacity: 1; font-family: 'Times New Roman'; font-size: 18px; fill: rgb(42, 63, 95); fill-opacity: 1; white-space: pre;">Data</text></g><g class="g-ytitle"><text class="ytitle" transform="rotate(-90,35.7,222.5)" x="35.7" y="222.5" text-anchor="middle" style="opacity: 1; font-family: 'Times New Roman'; font-size: 18px; fill: rgb(42, 63, 95); fill-opacity: 1; white-space: pre;">Count</text></g></g></svg>