<svg class="main-svg" xmlns="http://www.w3.org/2000/svg" xmlns:xlink="http://www.w3.org/1999/xlink" width="700" height="500" style="" viewBox="0 0 700 500"><rect x="0" y="0" width="700" height="500" style="fill: rgb(255, 255, 255); fill-opacity: 1;"/><defs id="defs-5e0b24"><g class="clips"><clipPath id="clip5e0b24xyplot" class="plotclip"><rect width="426" height="360"/></clipPath><clipPath class="axesclip" id="clip5e0b24x"><rect x="80" y="0" width="426" height="500"/></clipPath><clipPath class="axesclip" id="clip5e0b24y"><rect x="0" y="60" width="700" height="360"/></clipPath><clipPath class="axesclip" id="clip5e0b24xy"><rect x="80" y="60" width="426" height="360"/></clipPath></g><g class="gradients"/><g class="patterns"/></defs><g class="bglayer"><rect class="bg" x="80" y="60" width="426" height="360" style="fill: rgb(229, 236, 246); fill-opacity: 1; stroke-width: 0;"/></g><g class="layer-below"><g class="imagelayer"/><g class="shapelayer"/></g><g class="cartesianlayer"><g class="subplot xy"><g class="layer-subplot"><g class="shapelayer"/><g class="imagelayer"/></g><g class="minor-gridlayer"><g class="x"/><g class="y"/></g><g class="gridlayer"><g class="x"><path class="xgrid crisp" transform="translate(165.2,0)" d="M0,60v360" style="stroke: rgb(255, 255, 255); stroke-opacity: 1; stroke-width: 1px;"/><path class="xgrid crisp" transform="translate(250.4,0)" d="M0,60v360" style="stroke: rgb(255, 255, 255); stroke-opacity: 1; stroke-width: 1px;"/><path class="xgrid crisp" transform="translate(335.6,0)" d="M0,60v360" style="stroke: rgb(255, 255, 255); stroke-opacity: 1; stroke-width: 1px;"/><path class="xgrid crisp" transform="translate(420.8,0)" d="M0,60v360" style="stroke: rgb(255, 255, 255); stroke-opacity: 1; stroke-width: 1px;"/></g><g class="y"><path class="ygrid crisp" transform="translate(0,337.2)" d="M80,0h426" style="stroke: rgb(255, 255, 255); stroke-opacity: 1; stroke-width: 1px;"/><path class="ygrid crisp" transform="translate(0,272.4)" d="M80,0h426" style="stroke: rgb(255, 255, 255); stroke-opacity: 1; stroke-width: 1px;"/><path class="ygrid crisp" transform="translate(0,207.6)" d="M80,0h426" style="stroke: rgb(255, 255, 255); stroke-opacity: 1; stroke-width: 1px;"/><path class="ygrid crisp" transform="translate(0,142.8)" d="M80,0h426" style="stroke: rgb(255, 255, 255); stroke-opacity: 1; stroke-width: 1px;"/><path class="ygrid crisp" transform="translate(0,78)" d="M80,0h426" style="stroke: rgb(255, 255, 255); stroke-opacity: 1; stroke-width: 1px;"/></g></g><g class="zerolinelayer"><path class="xzl zl crisp" transform="translate(80,0)" d="M0,60v360" style="stroke: rgb(255, 255, 255); stroke-opacity: 1; stroke-width: 2px;"/><path class="yzl zl crisp" transform="translate(0,402)" d="M80,0h426" style="stroke: rgb(255, 255, 255); stroke-opacity: 1; stroke-width: 2px;"/></g><g class="layer-between"><g class="shapelayer"/><g class="imagelayer"/></g><path class="xlines-below"/><path class="ylines-below"/><g class="overlines-below"/><g class="xaxislayer-below"/><g class="yaxislayer-below"/><g class="overaxes-below"/><g class="overplot"><g class="xy" transform="translate(80,60)" clip-path="url(#clip5e0b24xyplot)"><g class="scatterlayer mlayer"><g class="trace scatter tracede9150" style="stroke-miterlimit: 2; opacity: 1;"><g class="fills"/><g class="errorbars"/><g class="lines"><path class="js-line" d="M0,18L4.3,147.27L8.61,112.56L12.91,109.35L17.21,113.72L21.52,119.18L25.82,133.35L30.12,151.09L34.42,157.92L38.73,168.42L43.03,173.18L47.33,171.15L51.64,181.28L60.24,189.6L64.55,197.08L68.85,196.62L73.15,208.84L77.45,207.06L81.76,213.27L86.06,219.7L90.36,236.63L94.67,230.32L98.97,232.71L103.27,246.24L107.58,238.62L111.88,240.18L116.18,243.41L120.48,243.9L124.79,251.44L129.09,249.99L133.39,265.68L137.7,255.38L142,256.19L146.3,260.14L150.61,267.07L154.91,263.24L159.21,272.59L163.52,279.06L167.82,275.43L172.12,270.68L176.42,281.41L180.73,283.86L185.03,273.89L189.33,277.7L193.64,283.97L197.94,281.88L202.24,286.83L206.55,283.87L210.85,295.34L215.15,289.21L219.45,292.5L223.76,294.1L228.06,299.58L232.36,306.23L236.67,303.7L240.97,305.91L245.27,312.92L253.88,307.91L258.18,313.67L262.48,313.89L266.79,317L271.09,311.79L275.39,314.9L279.7,319.98L284,312.61L288.3,313.28L292.61,320.69L296.91,319.62L301.21,319.71L305.52,323.49L309.82,321.61L314.12,319.06L318.42,324.71L327.03,325.09L331.33,327.1L335.64,324.68L339.94,329.38L344.24,328.09L348.55,329.39L352.85,331.54L357.15,326.9L361.45,331.63L365.76,334.16L370.06,333.63L374.36,335.57L378.67,336.3L382.97,335.23L387.27,334.49L391.58,334.8L395.88,339.1L400.18,339.97L404.48,338.8L408.79,338.66L413.09,339.81L417.39,341.79L421.7,337.97L426,342" style="vector-effect: none; fill: none; stroke: rgb(99, 110, 250); stroke-opacity: 1; stroke-width: 2px; opacity: 1;"/></g><g class="points"/><g class="text"/></g><g class="trace scatter trace7d0f4c" style="stroke-miterlimit: 2; opacity: 1;"><g class="fills"/><g class="errorbars"/><g class="lines"><path class="js-line" d="M0,112.25L4.3,138.21L8.61,18L12.91,122.31L17.21,19.82L21.52,103.28L25.82,111.94L30.12,195.21L34.42,152.02L38.73,175.48L43.03,142.45L47.33,145.35L51.64,216L55.94,236.28L60.24,221.07L64.55,242.35L68.85,172L73.15,226.96L77.45,241.65L81.76,247.08L86.06,263.57L90.36,276.58L94.67,263.41L98.97,267.72L103.27,283.87L107.58,281.5L111.88,293.07L116.18,295.75L120.48,285.99L124.79,242.7L129.09,304.3L133.39,293.89L137.7,300.37L142,291.28L146.3,297.54L150.61,296.06L154.91,297.79L159.21,293.42L163.52,298.4L167.82,286.96L172.12,312.02L176.42,316.26L180.73,297.74L185.03,298.81L189.33,319.24L193.64,314.91L197.94,315.04L202.24,322.58L206.55,303.67L210.85,315.96L215.15,324.21L219.45,305.68L223.76,326.08L228.06,324.29L232.36,328.6L236.67,324.33L240.97,323.96L245.27,327.7L249.58,329.71L253.88,328.61L258.18,333.05L266.79,331.1L271.09,336.93L275.39,332.44L279.7,336.14L288.3,337.53L292.61,334.59L305.52,336.96L309.82,338.32L314.12,339.66L318.42,337.14L322.73,339.71L327.03,338.5L331.33,334.41L335.64,339.41L344.24,341.52L348.55,341.73L361.45,340.76L365.76,341.66L370.06,339.91L374.36,341.63L426,342" style="vector-effect: none; fill: none; stroke: rgb(239, 85, 59); stroke-opacity: 1; stroke-width: 2px; opacity: 1;"/></g><g class="points"/><g class="text"/></g><g class="trace scatter trace2de7b6" style="stroke-miterlimit: 2; opacity: 1;"><g class="fills"/><g class="errorbars"/><g class="lines"><path class="js-line" d="M0,250.87L4.3,225.56L8.61,301.5L12.91,250.87L17.21,342L21.52,230.62L25.82,220.5L30.12,180L34.42,215.44L38.73,205.31L43.03,235.69L47.33,210.37L51.64,149.63L55.94,134.44L60.24,124.31L64.55,134.44L68.85,139.5L73.15,159.75L77.45,124.31L81.76,129.38L86.06,99L90.36,73.68L94.67,104.06L98.97,83.81L103.27,88.88L111.88,58.5L116.18,68.63L120.48,63.56L124.79,119.25L129.09,53.43L133.39,63.56L137.7,58.5L142,73.68L146.3,63.56L150.61,58.5L154.91,73.68L159.21,63.56L163.52,73.68L167.82,78.75L172.12,53.43L176.42,38.25L180.73,58.5L185.03,63.56L189.33,28.13L193.64,43.31L202.24,33.18L206.55,58.5L210.85,48.38L215.15,33.18L219.45,53.43L223.76,33.18L228.06,38.25L232.36,23.06L236.67,33.18L240.97,28.13L245.27,23.06L249.58,23.06L253.88,28.13L258.18,28.13L262.48,33.18L266.79,33.18L271.09,18L275.39,23.06L279.7,18L284,18L288.3,18L292.61,28.13L296.91,23.06L301.21,28.13L305.52,28.13L309.82,18L322.73,18L327.03,23.06L331.33,33.18L335.64,18L426,18" style="vector-effect: none; fill: none; stroke: rgb(0, 204, 150); stroke-opacity: 1; stroke-width: 2px; opacity: 1;"/></g><g class="points"/><g class="text"/></g></g></g></g><path class="xlines-above crisp" d="M0,0" style="fill: none;"/><path class="ylines-above crisp" d="M0,0" style="fill: none;"/><g class="overlines-above"/><g class="xaxislayer-above"><g class="xtick"><text text-anchor="middle" x="0" y="435" transform="translate(80,0)" style="font-family: 'Times New Roman'; font-size: 14px; fill: rgb(42, 63, 95); fill-opacity: 1; white-space: pre; opacity: 1;">0</text></g><g class="xtick"><text text-anchor="middle" x="0" y="435" style="font-family: 'Times New Roman'; font-size: 14px; fill: rgb(42, 63, 95); fill-opacity: 1; white-space: pre; opacity: 1;" transform="translate(165.2,0)">0.2</text></g><g class="xtick"><text text-anchor="middle" x="0" y="435" style="font-family: 'Times New Roman'; font-size: 14px; fill: rgb(42, 63, 95); fill-opacity: 1; white-space: pre; opacity: 1;" transform="translate(250.4,0)">0.4</text></g><g class="xtick"><text text-anchor="middle" x="0" y="435" style="font-family: 'Times New Roman'; font-size: 14px; fill: rgb(42, 63, 95); fill-opacity: 1; white-space: pre; opacity: 1;" transform="translate(335.6,0)">0.6</text></g><g class="xtick"><text text-anchor="middle" x="0" y="435" style="font-family: 'Times New Roman'; font-size: 14px; fill: rgb(42, 63, 95); fill-opacity: 1; white-space: pre; opacity: 1;" transform="translate(420.8,0)">0.8</text></g><g class="xtick"><text text-anchor="middle" x="0" y="435" style="font-family: 'Times New Roman'; font-size: 14px; fill: rgb(42, 63, 95); fill-opacity: 1; white-space: pre; opacity: 1;" transform="translate(506,0)">1</text></g></g><g class="yaxislayer-above"><g class="ytick"><text text-anchor="end" x="79" y="4.8999999999999995" transform="translate(0,402)" style="font-family: 'Times New Roman'; font-size: 14px; fill: rgb(42, 63, 95); fill-opacity: 1; white-space: pre; opacity: 1;">0</text></g><g class="ytick"><text text-anchor="end" x="79" y="4.8999999999999995" style="font-family: 'Times New Roman'; font-size: 14px; fill: rgb(42, 63, 95); fill-opacity: 1; white-space: pre; opacity: 1;" transform="translate(0,337.2)">0.2</text></g><g class="ytick"><text text-anchor="end" x="79" y="4.8999999999999995" style="font-family: 'Times New Roman'; font-size: 14px; fill: rgb(42, 63, 95); fill-opacity: 1; white-space: pre; opacity: 1;" transform="translate(0,272.4)">0.4</text></g><g class="ytick"><text text-anchor="end" x="79" y="4.8999999999999995" style="font-family: 'Times New Roman'; font-size: 14px; fill: rgb(42, 63, 95); fill-opacity: 1; white-space: pre; opacity: 1;" transform="translate(0,207.6)">0.6</text></g><g class="ytick"><text text-anchor="end" x="79" y="4.8999999999999995" style="font-family: 'Times New Roman'; font-size: 14px; fill: rgb(42, 63, 95); fill-opacity: 1; white-space: pre; opacity: 1;" transform="translate(0,142.8)">0.8</text></g><g class="ytick"><text text-anchor="end" x="79" y="4.8999999999999995" style="font-family: 'Times New Roman'; font-size: 14px; fill: rgb(42, 63, 95); fill-opacity: 1; white-space: pre; opacity: 1;" transform="translate(0,78)">1</text></g></g><g class="overaxes-above"/></g></g><g class="polarlayer"/><g class="smithlayer"/><g class="ternarylayer"/><g class="geolayer"/><g class="funnelarealayer"/><g class="pielayer"/><g class="iciclelayer"/><g class="treemaplayer"/><g class="sunburstlayer"/><g class="glimages"/><defs id="topdefs-5e0b24"><g class="clips"/><clipPath id="legend5e0b24"><rect width="173" height="96" x="0" y="0"/></clipPath></defs><g class="layer-above"><g class="imagelayer"/><g class="shapelayer"/></g><g class="infolayer"><g class="legend" pointer-events="all" transform="translate(514.52,60)"><rect class="bg" shape-rendering="crispEdges" width="173" height="96" x="0" y="0" style="stroke: rgb(68, 68, 68); stroke-opacity: 1; fill: rgb(255, 255, 255); fill-opacity: 1; stroke-width: 0px;"/><g class="scrollbox" transform="" clip-path="url(#legend5e0b24)"><text class="legendtitletext" text-anchor="start" x="2" y="22.1" style="font-family: 'Times New Roman'; font-size: 17px; fill: rgb(42, 63, 95); fill-opacity: 1; white-space: pre;">Metrics</text><g class="groups" transform=""><g class="traces" transform="translate(0,37.7)" style="opacity: 1;"><text class="legendtext" text-anchor="start" x="40" y="5.46" style="font-family: 'Times New Roman'; font-size: 14px; fill: rgb(42, 63, 95); fill-opacity: 1; white-space: pre;">train/loss</text><g class="layers" style="opacity: 1;"><g class="legendfill"/><g class="legendlines"><path class="js-line" d="M5,0h30" style="fill: none; stroke: rgb(99, 110, 250); stroke-opacity: 1; stroke-width: 2px;"/></g><g class="legendsymbols"><g class="legendpoints"/></g></g><rect class="legendtoggle" x="0" y="-10.6" width="167.71875" height="21.2" style="fill: rgb(0, 0, 0); fill-opacity: 0;"/></g></g><g class="groups" transform=""><g class="traces" transform="translate(0,58.9)" style="opacity: 1;"><text class="legendtext" text-anchor="start" x="40" y="5.46" style="font-family: 'Times New Roman'; font-size: 14px; fill: rgb(42, 63, 95); fill-opacity: 1; white-space: pre;">val/loss</text><g class="layers" style="opacity: 1;"><g class="legendfill"/><g class="legendlines"><path class="js-line" d="M5,0h30" style="fill: none; stroke: rgb(239, 85, 59); stroke-opacity: 1; stroke-width: 2px;"/></g><g class="legendsymbols"><g class="legendpoints"/></g></g><rect class="legendtoggle" x="0" y="-10.6" width="167.71875" height="21.2" style="fill: rgb(0, 0, 0); fill-opacity: 0;"/></g></g><g class="groups" transform=""><g class="traces" transform="translate(0,80.1)" style="opacity: 1;"><text class="legendtext" text-anchor="start" x="40" y="5.46" style="font-family: 'Times New Roman'; font-size: 14px; fill: rgb(42, 63, 95); fill-opacity: 1; white-space: pre;">metrics/accuracy_top1</text><g class="layers" style="opacity: 1;"><g class="legendfill"/><g class="legendlines"><path class="js-line" d="M5,0h30" style="fill: none; stroke: rgb(0, 204, 150); stroke-opacity: 1; stroke-width: 2px;"/></g><g class="legendsymbols"><g class="legendpoints"/></g></g><rect class="legendtoggle" x="0" y="-10.6" width="167.71875" height="21.2" style="fill: rgb(0, 0, 0); fill-opacity: 0;"/></g></g></g><rect class="scrollbar" rx="20" ry="3" width="0" height="0" x="0" y="0" style="fill: rgb(128, 139, 164); fill-opacity: 1;"/></g><g class="g-gtitle"/><g class="g-xtitle"><text class="xtitle" x="293" y="464.4" text-anchor="middle" style="opacity: 1; font-family: 'Times New Roman'; font-size: 17px; fill: rgb(42, 63, 95); fill-opacity: 1; white-space: pre;">Epoch</text></g><g class="g-ytitle"><text class="ytitle" transform="rotate(-90,41.05,240)" x="41.05" y="240" text-anchor="middle" style="opacity: 1; font-family: 'Times New Roman'; font-size: 17px; fill: rgb(42, 63, 95); fill-opacity: 1; white-space: pre;">Values</text></g></g></svg>