<svg class="main-svg" xmlns="http://www.w3.org/2000/svg" xmlns:xlink="http://www.w3.org/1999/xlink" width="700" height="500" style="" viewBox="0 0 700 500"><rect x="0" y="0" width="700" height="500" style="fill: rgb(255, 255, 255); fill-opacity: 1;"/><defs id="defs-843cb8"><g class="clips"><clipPath id="clip843cb8xyplot" class="plotclip"><rect width="417" height="320"/></clipPath><clipPath class="axesclip" id="clip843cb8x"><rect x="80" y="0" width="417" height="500"/></clipPath><clipPath class="axesclip" id="clip843cb8y"><rect x="0" y="100" width="700" height="320"/></clipPath><clipPath class="axesclip" id="clip843cb8xy"><rect x="80" y="100" width="417" height="320"/></clipPath></g><g class="gradients"/><g class="patterns"/></defs><g class="bglayer"><rect class="bg" x="80" y="100" width="417" height="320" style="fill: rgb(229, 236, 246); fill-opacity: 1; stroke-width: 0;"/></g><g class="layer-below"><g class="imagelayer"/><g class="shapelayer"/></g><g class="cartesianlayer"><g class="subplot xy"><g class="layer-subplot"><g class="shapelayer"/><g class="imagelayer"/></g><g class="minor-gridlayer"><g class="x"/><g class="y"/></g><g class="gridlayer"><g class="x"><path class="xgrid crisp" transform="translate(163.4,0)" d="M0,100v320" style="stroke: rgb(255, 255, 255); stroke-opacity: 1; stroke-width: 1px;"/><path class="xgrid crisp" transform="translate(246.8,0)" d="M0,100v320" style="stroke: rgb(255, 255, 255); stroke-opacity: 1; stroke-width: 1px;"/><path class="xgrid crisp" transform="translate(330.2,0)" d="M0,100v320" style="stroke: rgb(255, 255, 255); stroke-opacity: 1; stroke-width: 1px;"/><path class="xgrid crisp" transform="translate(413.6,0)" d="M0,100v320" style="stroke: rgb(255, 255, 255); stroke-opacity: 1; stroke-width: 1px;"/></g><g class="y"><path class="ygrid crisp" transform="translate(0,346.4)" d="M80,0h417" style="stroke: rgb(255, 255, 255); stroke-opacity: 1; stroke-width: 1px;"/><path class="ygrid crisp" transform="translate(0,288.8)" d="M80,0h417" style="stroke: rgb(255, 255, 255); stroke-opacity: 1; stroke-width: 1px;"/><path class="ygrid crisp" transform="translate(0,231.2)" d="M80,0h417" style="stroke: rgb(255, 255, 255); stroke-opacity: 1; stroke-width: 1px;"/><path class="ygrid crisp" transform="translate(0,173.6)" d="M80,0h417" style="stroke: rgb(255, 255, 255); stroke-opacity: 1; stroke-width: 1px;"/><path class="ygrid crisp" transform="translate(0,116)" d="M80,0h417" style="stroke: rgb(255, 255, 255); stroke-opacity: 1; stroke-width: 1px;"/></g></g><g class="zerolinelayer"><path class="xzl zl crisp" transform="translate(80,0)" d="M0,100v320" style="stroke: rgb(255, 255, 255); stroke-opacity: 1; stroke-width: 2px;"/><path class="yzl zl crisp" transform="translate(0,404)" d="M80,0h417" style="stroke: rgb(255, 255, 255); stroke-opacity: 1; stroke-width: 2px;"/></g><g class="layer-between"><g class="shapelayer"/><g class="imagelayer"/></g><path class="xlines-below"/><path class="ylines-below"/><g class="overlines-below"/><g class="xaxislayer-below"/><g class="yaxislayer-below"/><g class="overaxes-below"/><g class="overplot"><g class="xy" transform="translate(80,100)" clip-path="url(#clip843cb8xyplot)"><g class="scatterlayer mlayer"><g class="trace scatter trace8fe7bc" style="stroke-miterlimit: 2; opacity: 1;"><g class="fills"/><g class="errorbars"/><g class="lines"><path class="js-line" d="M0,16L4.21,130.91L8.42,100.05L12.64,97.2L16.85,101.08L21.06,105.94L25.27,118.53L29.48,134.3L33.7,140.37L37.91,149.71L42.12,153.94L46.33,152.14L50.55,161.14L58.97,168.53L63.18,175.18L67.39,174.77L71.61,185.63L75.82,184.06L80.03,189.58L84.24,195.29L88.45,210.34L92.67,204.73L96.88,206.86L101.09,218.88L105.3,212.11L109.52,213.49L113.73,216.36L117.94,216.8L122.15,223.5L126.36,222.21L130.58,236.16L134.79,227L139,227.73L143.21,231.24L147.42,237.39L151.64,233.99L155.85,242.3L160.06,248.05L164.27,244.83L168.48,240.61L172.7,250.14L176.91,252.32L181.12,243.46L185.33,246.84L189.55,252.41L193.76,250.56L197.97,254.96L202.18,252.33L206.39,262.53L210.61,257.08L214.82,260L219.03,261.42L223.24,266.29L227.45,272.21L231.67,269.96L235.88,271.92L240.09,278.15L248.52,273.7L252.73,278.82L256.94,279.01L261.15,281.78L265.36,277.15L269.58,279.91L273.79,284.42L278,277.88L282.21,278.47L286.42,285.06L290.64,284.11L294.85,284.18L299.06,287.55L303.27,285.87L307.48,283.61L311.7,288.63L320.12,288.97L324.33,290.76L328.55,288.61L332.76,292.78L336.97,291.63L341.18,292.8L345.39,294.7L349.61,290.58L353.82,294.79L358.03,297.03L362.24,296.56L366.45,298.29L370.67,298.94L374.88,297.98L379.09,297.32L383.3,297.6L387.52,301.42L391.73,302.2L395.94,301.15L400.15,301.03L408.58,303.81L412.79,300.42L417,304" style="vector-effect: none; fill: none; stroke: rgb(99, 110, 250); stroke-opacity: 1; stroke-width: 2px; opacity: 1;"/></g><g class="points"/><g class="text"/></g><g class="trace scatter tracee51371" style="stroke-miterlimit: 2; opacity: 1;"><g class="fills"/><g class="errorbars"/><g class="lines"><path class="js-line" d="M0,99.78L4.21,122.85L8.42,16L12.64,108.72L16.85,17.61L21.06,91.8L25.27,99.5L29.48,173.52L33.7,135.13L37.91,155.98L42.12,126.63L46.33,129.2L50.55,192L54.76,210.03L58.97,196.51L63.18,215.42L67.39,152.89L71.61,201.75L75.82,214.8L80.03,219.63L84.24,234.28L88.45,245.85L92.67,234.14L96.88,237.97L101.09,252.33L105.3,250.22L109.52,260.51L113.73,262.89L117.94,254.21L122.15,215.74L126.36,270.49L130.58,261.24L134.79,266.99L139,258.91L143.21,264.48L147.42,263.16L151.64,264.7L155.85,260.82L160.06,265.24L164.27,255.08L168.48,277.35L172.7,281.12L176.91,264.66L181.12,265.61L185.33,283.77L189.55,279.92L193.76,280.04L197.97,286.74L202.18,269.93L206.39,280.86L210.61,288.19L214.82,271.72L219.03,289.84L223.24,288.26L227.45,292.09L231.67,288.3L235.88,287.96L240.09,291.29L244.3,293.08L248.52,292.1L252.73,296.05L261.15,294.31L265.36,299.49L269.58,295.5L273.79,298.79L282.21,300.02L286.42,297.41L299.06,299.52L303.27,300.73L307.48,301.92L311.7,299.68L315.91,301.96L320.12,300.89L324.33,297.25L328.55,301.7L336.97,303.57L341.18,303.76L353.82,302.9L358.03,303.69L362.24,302.14L366.45,303.67L417,304" style="vector-effect: none; fill: none; stroke: rgb(239, 85, 59); stroke-opacity: 1; stroke-width: 2px; opacity: 1;"/></g><g class="points"/><g class="text"/></g><g class="trace scatter trace1bda83" style="stroke-miterlimit: 2; opacity: 1;"><g class="fills"/><g class="errorbars"/><g class="lines"><path class="js-line" d="M0,223L4.21,200.5L8.42,268L12.64,223L16.85,304L21.06,205L25.27,196L29.48,160L33.7,191.5L37.91,182.5L42.12,209.5L46.33,187L50.55,133L54.76,119.5L58.97,110.5L63.18,119.5L67.39,124L71.61,142L75.82,110.5L80.03,115L84.24,88L88.45,65.5L92.67,92.5L96.88,74.5L101.09,79L109.52,52L113.73,61L117.94,56.5L122.15,106L126.36,47.5L130.58,56.5L134.79,52L139,65.5L143.21,56.5L147.42,52L151.64,65.5L155.85,56.5L160.06,65.5L164.27,70L168.48,47.5L172.7,34L176.91,52L181.12,56.5L185.33,25L189.55,38.5L197.97,29.5L202.18,52L206.39,43L210.61,29.5L214.82,47.5L219.03,29.5L223.24,34L227.45,20.5L231.67,29.5L235.88,25L240.09,20.5L244.3,20.5L248.52,25L252.73,25L256.94,29.5L261.15,29.5L265.36,16L269.58,20.5L273.79,16L278,16L282.21,16L286.42,25L290.64,20.5L294.85,25L299.06,25L303.27,16L315.91,16L320.12,20.5L324.33,29.5L328.55,16L417,16" style="vector-effect: none; fill: none; stroke: rgb(0, 204, 150); stroke-opacity: 1; stroke-width: 2px; opacity: 1;"/></g><g class="points"/><g class="text"/></g></g></g></g><path class="xlines-above crisp" d="M0,0" style="fill: none;"/><path class="ylines-above crisp" d="M0,0" style="fill: none;"/><g class="overlines-above"/><g class="xaxislayer-above"><g class="xtick"><text text-anchor="middle" x="0" y="433" transform="translate(80,0)" style="font-family: 'Open Sans', verdana, arial, sans-serif; font-size: 12px; fill: rgb(42, 63, 95); fill-opacity: 1; white-space: pre; opacity: 1;">0</text></g><g class="xtick"><text text-anchor="middle" x="0" y="433" style="font-family: 'Open Sans', verdana, arial, sans-serif; font-size: 12px; fill: rgb(42, 63, 95); fill-opacity: 1; white-space: pre; opacity: 1;" transform="translate(163.4,0)">0.2</text></g><g class="xtick"><text text-anchor="middle" x="0" y="433" style="font-family: 'Open Sans', verdana, arial, sans-serif; font-size: 12px; fill: rgb(42, 63, 95); fill-opacity: 1; white-space: pre; opacity: 1;" transform="translate(246.8,0)">0.4</text></g><g class="xtick"><text text-anchor="middle" x="0" y="433" style="font-family: 'Open Sans', verdana, arial, sans-serif; font-size: 12px; fill: rgb(42, 63, 95); fill-opacity: 1; white-space: pre; opacity: 1;" transform="translate(330.2,0)">0.6</text></g><g class="xtick"><text text-anchor="middle" x="0" y="433" style="font-family: 'Open Sans', verdana, arial, sans-serif; font-size: 12px; fill: rgb(42, 63, 95); fill-opacity: 1; white-space: pre; opacity: 1;" transform="translate(413.6,0)">0.8</text></g><g class="xtick"><text text-anchor="middle" x="0" y="433" style="font-family: 'Open Sans', verdana, arial, sans-serif; font-size: 12px; fill: rgb(42, 63, 95); fill-opacity: 1; white-space: pre; opacity: 1;" transform="translate(497,0)">1</text></g></g><g class="yaxislayer-above"><g class="ytick"><text text-anchor="end" x="79" y="4.199999999999999" transform="translate(0,404)" style="font-family: 'Open Sans', verdana, arial, sans-serif; font-size: 12px; fill: rgb(42, 63, 95); fill-opacity: 1; white-space: pre; opacity: 1;">0</text></g><g class="ytick"><text text-anchor="end" x="79" y="4.199999999999999" style="font-family: 'Open Sans', verdana, arial, sans-serif; font-size: 12px; fill: rgb(42, 63, 95); fill-opacity: 1; white-space: pre; opacity: 1;" transform="translate(0,346.4)">0.2</text></g><g class="ytick"><text text-anchor="end" x="79" y="4.199999999999999" style="font-family: 'Open Sans', verdana, arial, sans-serif; font-size: 12px; fill: rgb(42, 63, 95); fill-opacity: 1; white-space: pre; opacity: 1;" transform="translate(0,288.8)">0.4</text></g><g class="ytick"><text text-anchor="end" x="79" y="4.199999999999999" style="font-family: 'Open Sans', verdana, arial, sans-serif; font-size: 12px; fill: rgb(42, 63, 95); fill-opacity: 1; white-space: pre; opacity: 1;" transform="translate(0,231.2)">0.6</text></g><g class="ytick"><text text-anchor="end" x="79" y="4.199999999999999" style="font-family: 'Open Sans', verdana, arial, sans-serif; font-size: 12px; fill: rgb(42, 63, 95); fill-opacity: 1; white-space: pre; opacity: 1;" transform="translate(0,173.6)">0.8</text></g><g class="ytick"><text text-anchor="end" x="79" y="4.199999999999999" style="font-family: 'Open Sans', verdana, arial, sans-serif; font-size: 12px; fill: rgb(42, 63, 95); fill-opacity: 1; white-space: pre; opacity: 1;" transform="translate(0,116)">1</text></g></g><g class="overaxes-above"/></g></g><g class="polarlayer"/><g class="smithlayer"/><g class="ternarylayer"/><g class="geolayer"/><g class="funnelarealayer"/><g class="pielayer"/><g class="iciclelayer"/><g class="treemaplayer"/><g class="sunburstlayer"/><g class="glimages"/><defs id="topdefs-843cb8"><g class="clips"/><clipPath id="legend843cb8"><rect width="183" height="86" x="0" y="0"/></clipPath></defs><g class="layer-above"><g class="imagelayer"/><g class="shapelayer"/></g><g class="infolayer"><g class="legend" pointer-events="all" transform="translate(505.34000000000003,100)"><rect class="bg" shape-rendering="crispEdges" style="stroke: rgb(68, 68, 68); stroke-opacity: 1; fill: rgb(255, 255, 255); fill-opacity: 1; stroke-width: 0px;" width="183" height="86" x="0" y="0"/><g class="scrollbox" transform="" clip-path="url(#legend843cb8)"><text class="legendtitletext" text-anchor="start" x="2" y="18.2" style="font-family: 'Open Sans', verdana, arial, sans-serif; font-size: 14px; fill: rgb(42, 63, 95); fill-opacity: 1; white-space: pre;">variable</text><g class="groups" transform=""><g class="traces" transform="translate(0,32.7)" style="opacity: 1;"><text class="legendtext" text-anchor="start" x="40" y="4.680000000000001" style="font-family: 'Open Sans', verdana, arial, sans-serif; font-size: 12px; fill: rgb(42, 63, 95); fill-opacity: 1; white-space: pre;">train/loss</text><g class="layers" style="opacity: 1;"><g class="legendfill"/><g class="legendlines"><path class="js-line" d="M5,0h30" style="fill: none; stroke: rgb(99, 110, 250); stroke-opacity: 1; stroke-width: 2px;"/></g><g class="legendsymbols"><g class="legendpoints"/></g></g><rect class="legendtoggle" x="0" y="-9.5" width="177.4375" height="19" style="fill: rgb(0, 0, 0); fill-opacity: 0;"/></g></g><g class="groups" transform=""><g class="traces" transform="translate(0,51.7)" style="opacity: 1;"><text class="legendtext" text-anchor="start" x="40" y="4.680000000000001" style="font-family: 'Open Sans', verdana, arial, sans-serif; font-size: 12px; fill: rgb(42, 63, 95); fill-opacity: 1; white-space: pre;">val/loss</text><g class="layers" style="opacity: 1;"><g class="legendfill"/><g class="legendlines"><path class="js-line" d="M5,0h30" style="fill: none; stroke: rgb(239, 85, 59); stroke-opacity: 1; stroke-width: 2px;"/></g><g class="legendsymbols"><g class="legendpoints"/></g></g><rect class="legendtoggle" x="0" y="-9.5" width="177.4375" height="19" style="fill: rgb(0, 0, 0); fill-opacity: 0;"/></g></g><g class="groups" transform=""><g class="traces" transform="translate(0,70.7)" style="opacity: 1;"><text class="legendtext" text-anchor="start" x="40" y="4.680000000000001" style="font-family: 'Open Sans', verdana, arial, sans-serif; font-size: 12px; fill: rgb(42, 63, 95); fill-opacity: 1; white-space: pre;">metrics/accuracy_top1</text><g class="layers" style="opacity: 1;"><g class="legendfill"/><g class="legendlines"><path class="js-line" d="M5,0h30" style="fill: none; stroke: rgb(0, 204, 150); stroke-opacity: 1; stroke-width: 2px;"/></g><g class="legendsymbols"><g class="legendpoints"/></g></g><rect class="legendtoggle" x="0" y="-9.5" width="177.4375" height="19" style="fill: rgb(0, 0, 0); fill-opacity: 0;"/></g></g></g><rect class="scrollbar" rx="20" ry="3" width="0" height="0" style="fill: rgb(128, 139, 164); fill-opacity: 1;" x="0" y="0"/></g><g class="g-gtitle"><text class="gtitle" x="35" y="50" text-anchor="start" dy="0em" style="opacity: 1; font-family: 'Open Sans', verdana, arial, sans-serif; font-size: 17px; fill: rgb(42, 63, 95); fill-opacity: 1; white-space: pre;">Combine (Scaled)</text></g><g class="g-xtitle"><text class="xtitle" x="288.5" y="460.3" text-anchor="middle" style="opacity: 1; font-family: 'Open Sans', verdana, arial, sans-serif; font-size: 14px; fill: rgb(42, 63, 95); fill-opacity: 1; white-space: pre;">epoch</text></g><g class="g-ytitle"><text class="ytitle" transform="rotate(-90,39.975,260)" x="39.975" y="260" text-anchor="middle" style="opacity: 1; font-family: 'Open Sans', verdana, arial, sans-serif; font-size: 14px; fill: rgb(42, 63, 95); fill-opacity: 1; white-space: pre;">value</text></g></g></svg>