<svg class="main-svg" xmlns="http://www.w3.org/2000/svg" xmlns:xlink="http://www.w3.org/1999/xlink" width="700" height="500" style="" viewBox="0 0 700 500"><rect x="0" y="0" width="700" height="500" style="fill: rgb(255, 255, 255); fill-opacity: 1;"/><defs id="defs-af0d9d"><g class="clips"><clipPath id="clipaf0d9dxyplot" class="plotclip"><rect width="540" height="360"/></clipPath><clipPath class="axesclip" id="clipaf0d9dx"><rect x="80" y="0" width="540" height="500"/></clipPath><clipPath class="axesclip" id="clipaf0d9dy"><rect x="0" y="60" width="700" height="360"/></clipPath><clipPath class="axesclip" id="clipaf0d9dxy"><rect x="80" y="60" width="540" height="360"/></clipPath></g><g class="gradients"/><g class="patterns"/></defs><g class="bglayer"><rect class="bg" x="80" y="60" width="540" height="360" style="fill: rgb(229, 236, 246); fill-opacity: 1; stroke-width: 0;"/></g><g class="layer-below"><g class="imagelayer"/><g class="shapelayer"/></g><g class="cartesianlayer"><g class="subplot xy"><g class="layer-subplot"><g class="shapelayer"/><g class="imagelayer"/></g><g class="minor-gridlayer"><g class="x"/><g class="y"/></g><g class="gridlayer"><g class="x"><path class="xgrid crisp" transform="translate(183.64,0)" d="M0,60v360" style="stroke: rgb(255, 255, 255); stroke-opacity: 1; stroke-width: 1px;"/><path class="xgrid crisp" transform="translate(292.73,0)" d="M0,60v360" style="stroke: rgb(255, 255, 255); stroke-opacity: 1; stroke-width: 1px;"/><path class="xgrid crisp" transform="translate(401.82,0)" d="M0,60v360" style="stroke: rgb(255, 255, 255); stroke-opacity: 1; stroke-width: 1px;"/><path class="xgrid crisp" transform="translate(510.91,0)" d="M0,60v360" style="stroke: rgb(255, 255, 255); stroke-opacity: 1; stroke-width: 1px;"/></g><g class="y"><path class="ygrid crisp" transform="translate(0,373.91)" d="M80,0h540" style="stroke: rgb(255, 255, 255); stroke-opacity: 1; stroke-width: 1px;"/><path class="ygrid crisp" transform="translate(0,325.48)" d="M80,0h540" style="stroke: rgb(255, 255, 255); stroke-opacity: 1; stroke-width: 1px;"/><path class="ygrid crisp" transform="translate(0,277.03999999999996)" d="M80,0h540" style="stroke: rgb(255, 255, 255); stroke-opacity: 1; stroke-width: 1px;"/><path class="ygrid crisp" transform="translate(0,228.61)" d="M80,0h540" style="stroke: rgb(255, 255, 255); stroke-opacity: 1; stroke-width: 1px;"/><path class="ygrid crisp" transform="translate(0,180.18)" d="M80,0h540" style="stroke: rgb(255, 255, 255); stroke-opacity: 1; stroke-width: 1px;"/><path class="ygrid crisp" transform="translate(0,131.74)" d="M80,0h540" style="stroke: rgb(255, 255, 255); stroke-opacity: 1; stroke-width: 1px;"/><path class="ygrid crisp" transform="translate(0,83.31)" d="M80,0h540" style="stroke: rgb(255, 255, 255); stroke-opacity: 1; stroke-width: 1px;"/></g></g><g class="zerolinelayer"/><g class="layer-between"><g class="shapelayer"/><g class="imagelayer"/></g><path class="xlines-below"/><path class="ylines-below"/><g class="overlines-below"/><g class="xaxislayer-below"/><g class="yaxislayer-below"/><g class="overaxes-below"/><g class="overplot"><g class="xy" transform="translate(80,60)" clip-path="url(#clipaf0d9dxyplot)"><g class="scatterlayer mlayer"><g class="trace scatter tracef23aa6" style="stroke-miterlimit: 2; opacity: 1;"><g class="fills"/><g class="errorbars"/><g class="lines"><path class="js-line" d="M0,18L5.45,57.87L10.91,74.85L16.36,84.37L21.82,90.9L43.64,112.27L49.09,118.3L70.91,141.58L76.36,147.09L98.18,168.42L103.64,173.51L141.82,209.51L147.27,213.88L174.55,233.35L180,236.72L212.73,255.33L218.18,258.05L234.55,265.97L240,268.11L267.27,278.06L272.73,279.97L300,289.93L305.45,292.09L327.27,300.83L332.73,302.84L349.09,308.25L354.55,309.94L376.36,315.04L381.82,316.22L409.09,321.63L414.55,322.62L452.73,329.14L458.18,329.95L518.18,339.23L523.64,339.97L540,342" style="vector-effect: none; fill: none; stroke: rgb(99, 110, 250); stroke-opacity: 1; stroke-width: 2px; opacity: 1;"/></g><g class="points"/><g class="text"/></g></g></g></g><path class="xlines-above crisp" d="M0,0" style="fill: none;"/><path class="ylines-above crisp" d="M0,0" style="fill: none;"/><g class="overlines-above"/><g class="xaxislayer-above"><g class="xtick"><text text-anchor="middle" x="0" y="436" transform="translate(183.64,0)" style="font-family: 'Times New Roman'; font-size: 15px; fill: rgb(42, 63, 95); fill-opacity: 1; white-space: pre; opacity: 1;">20</text></g><g class="xtick"><text text-anchor="middle" x="0" y="436" style="font-family: 'Times New Roman'; font-size: 15px; fill: rgb(42, 63, 95); fill-opacity: 1; white-space: pre; opacity: 1;" transform="translate(292.73,0)">40</text></g><g class="xtick"><text text-anchor="middle" x="0" y="436" style="font-family: 'Times New Roman'; font-size: 15px; fill: rgb(42, 63, 95); fill-opacity: 1; white-space: pre; opacity: 1;" transform="translate(401.82,0)">60</text></g><g class="xtick"><text text-anchor="middle" x="0" y="436" style="font-family: 'Times New Roman'; font-size: 15px; fill: rgb(42, 63, 95); fill-opacity: 1; white-space: pre; opacity: 1;" transform="translate(510.91,0)">80</text></g><g class="xtick"><text text-anchor="middle" x="0" y="436" style="font-family: 'Times New Roman'; font-size: 15px; fill: rgb(42, 63, 95); fill-opacity: 1; white-space: pre; opacity: 1;" transform="translate(620,0)">100</text></g></g><g class="yaxislayer-above"><g class="ytick"><text text-anchor="end" x="79" y="5.25" transform="translate(0,373.91)" style="font-family: 'Times New Roman'; font-size: 15px; fill: rgb(42, 63, 95); fill-opacity: 1; white-space: pre; opacity: 1;">0.2</text></g><g class="ytick"><text text-anchor="end" x="79" y="5.25" style="font-family: 'Times New Roman'; font-size: 15px; fill: rgb(42, 63, 95); fill-opacity: 1; white-space: pre; opacity: 1;" transform="translate(0,325.48)">0.4</text></g><g class="ytick"><text text-anchor="end" x="79" y="5.25" style="font-family: 'Times New Roman'; font-size: 15px; fill: rgb(42, 63, 95); fill-opacity: 1; white-space: pre; opacity: 1;" transform="translate(0,277.03999999999996)">0.6</text></g><g class="ytick"><text text-anchor="end" x="79" y="5.25" style="font-family: 'Times New Roman'; font-size: 15px; fill: rgb(42, 63, 95); fill-opacity: 1; white-space: pre; opacity: 1;" transform="translate(0,228.61)">0.8</text></g><g class="ytick"><text text-anchor="end" x="79" y="5.25" style="font-family: 'Times New Roman'; font-size: 15px; fill: rgb(42, 63, 95); fill-opacity: 1; white-space: pre; opacity: 1;" transform="translate(0,180.18)">1</text></g><g class="ytick"><text text-anchor="end" x="79" y="5.25" style="font-family: 'Times New Roman'; font-size: 15px; fill: rgb(42, 63, 95); fill-opacity: 1; white-space: pre; opacity: 1;" transform="translate(0,131.74)">1.2</text></g><g class="ytick"><text text-anchor="end" x="79" y="5.25" style="font-family: 'Times New Roman'; font-size: 15px; fill: rgb(42, 63, 95); fill-opacity: 1; white-space: pre; opacity: 1;" transform="translate(0,83.31)">1.4</text></g></g><g class="overaxes-above"/></g></g><g class="polarlayer"/><g class="smithlayer"/><g class="ternarylayer"/><g class="geolayer"/><g class="funnelarealayer"/><g class="pielayer"/><g class="iciclelayer"/><g class="treemaplayer"/><g class="sunburstlayer"/><g class="glimages"/><defs id="topdefs-af0d9d"><g class="clips"/></defs><g class="layer-above"><g class="imagelayer"/><g class="shapelayer"/></g><g class="infolayer"><g class="g-gtitle"/><g class="g-xtitle"><text class="xtitle" x="350" y="466.1" text-anchor="middle" style="opacity: 1; font-family: 'Times New Roman'; font-size: 18px; fill: rgb(42, 63, 95); fill-opacity: 1; white-space: pre;">Epoch</text></g><g class="g-ytitle"><text class="ytitle" transform="rotate(-90,39.45,240)" x="39.45" y="240" text-anchor="middle" style="opacity: 1; font-family: 'Times New Roman'; font-size: 18px; fill: rgb(42, 63, 95); fill-opacity: 1; white-space: pre;">Train-Loss</text></g></g></svg>